<?xml version="1.0" encoding="UTF-8" standalone="no"?>
<!-- Created with Inkscape (http://www.inkscape.org/) -->

<svg
   xmlns:dc="http://purl.org/dc/elements/1.1/"
   xmlns:cc="http://creativecommons.org/ns#"
   xmlns:rdf="http://www.w3.org/1999/02/22-rdf-syntax-ns#"
   xmlns:svg="http://www.w3.org/2000/svg"
   xmlns="http://www.w3.org/2000/svg"
   xmlns:sodipodi="http://sodipodi.sourceforge.net/DTD/sodipodi-0.dtd"
   xmlns:inkscape="http://www.inkscape.org/namespaces/inkscape"
   width="800px"
   height="600px"
   id="svg3328"
   version="1.1"
   inkscape:version="0.48.2 r9819"
   sodipodi:docname="New document 2">
  <defs
     id="defs3330" />
  <sodipodi:namedview
     id="base"
     pagecolor="#ffffff"
     bordercolor="#666666"
     borderopacity="1.0"
     inkscape:pageopacity="0.0"
     inkscape:pageshadow="2"
     inkscape:zoom="0.6"
     inkscape:cx="400"
     inkscape:cy="300"
     inkscape:current-layer="layer1"
     inkscape:document-units="px"
     showgrid="false"
     inkscape:window-width="934"
     inkscape:window-height="656"
     inkscape:window-x="192"
     inkscape:window-y="192"
     inkscape:window-maximized="0" />
  <metadata
     id="metadata3333">
    <rdf:RDF>
      <cc:Work
         rdf:about="">
        <dc:format>image/svg+xml</dc:format>
        <dc:type
           rdf:resource="http://purl.org/dc/dcmitype/StillImage" />
        <dc:title></dc:title>
      </cc:Work>
    </rdf:RDF>
  </metadata>
  <g
     id="layer1"
     inkscape:label="Layer 1"
     inkscape:groupmode="layer">
    <g
       transform="matrix(0.03543307,0,0,0.03543307,-62.041987,-86.44947)"
       class="com.sun.star.drawing.CustomShape"
       id="g199">
      <g
         id="id9">
        <path
           d="m 3598,6985 0,0 3,-116 9,-116 14,-116 20,-114 26,-113 32,-112 37,-109 42,-108 48,-105 52,-102 58,-99 63,-96 68,-92 72,-89 76,-84 80,-80 84,-76 88,-71 92,-66 94,-60 97,-56 100,-50 103,-44 104,-39 106,-33 108,-27 109,-22 110,-15 110,-9 111,-3 0,0 111,3 110,9 110,15 109,22 108,27 106,33 104,39 103,44 100,50 97,56 94,60 92,66 88,71 84,76 80,80 76,84 72,89 68,92 63,96 58,99 52,102 48,105 42,108 37,109 32,112 26,113 20,114 14,116 9,116 3,116 -1,0 -3,116 -9,116 -14,116 -20,114 -26,113 -32,112 -37,109 -42,108 -48,105 -52,102 -58,99 -63,96 -68,92 -72,89 -76,84 -80,80 -84,76 -88,71 -92,66 -94,60 -97,56 -100,50 -103,44 -104,39 -106,33 -108,27 -109,22 -110,15 -110,9 -111,3 0,-1 -111,-3 -110,-9 -110,-15 -109,-22 -108,-27 -106,-33 -104,-39 -103,-44 -100,-50 -97,-56 -94,-60 -92,-66 -88,-71 -84,-76 -80,-80 -76,-84 -72,-89 -68,-92 -63,-96 -58,-99 -52,-102 -48,-105 -42,-108 -37,-109 -32,-112 -26,-113 -20,-114 -14,-116 -9,-116 -3,-116 1,1 z m 0,-2222 0,0 z m 4233,4445 0,0 z"
           id="path202"
           inkscape:connector-curvature="0"
           style="fill:#4f81bd;stroke:none" />
        <path
           d="m 3598,6985 0,0 3,-116 9,-116 14,-116 20,-114 26,-113 32,-112 37,-109 42,-108 48,-105 52,-102 58,-99 63,-96 68,-92 72,-89 76,-84 80,-80 84,-76 88,-71 92,-66 94,-60 97,-56 100,-50 103,-44 104,-39 106,-33 108,-27 109,-22 110,-15 110,-9 111,-3 0,0 111,3 110,9 110,15 109,22 108,27 106,33 104,39 103,44 100,50 97,56 94,60 92,66 88,71 84,76 80,80 76,84 72,89 68,92 63,96 58,99 52,102 48,105 42,108 37,109 32,112 26,113 20,114 14,116 9,116 3,116 -1,0 -3,116 -9,116 -14,116 -20,114 -26,113 -32,112 -37,109 -42,108 -48,105 -52,102 -58,99 -63,96 -68,92 -72,89 -76,84 -80,80 -84,76 -88,71 -92,66 -94,60 -97,56 -100,50 -103,44 -104,39 -106,33 -108,27 -109,22 -110,15 -110,9 -111,3 0,-1 -111,-3 -110,-9 -110,-15 -109,-22 -108,-27 -106,-33 -104,-39 -103,-44 -100,-50 -97,-56 -94,-60 -92,-66 -88,-71 -84,-76 -80,-80 -76,-84 -72,-89 -68,-92 -63,-96 -58,-99 -52,-102 -48,-105 -42,-108 -37,-109 -32,-112 -26,-113 -20,-114 -14,-116 -9,-116 -3,-116 1,1 z"
           id="path204"
           inkscape:connector-curvature="0"
           style="fill:none;stroke:#3a5f8b;stroke-width:71;stroke-linejoin:round" />
        <text
           class="TextShape"
           id="text206">
          <tspan
             class="TextParagraph"
             font-size="1693px"
             font-weight="400"
             id="tspan208"
             style="font-size:1693px;font-weight:400;font-family:'Calibri, sans-serif'">
            <tspan
               class="TextPosition"
               x="4796"
               y="7663"
               id="tspan210">
              <tspan
                 id="tspan212"
                 style="fill:#ffffff;stroke:none">A1</tspan>
            </tspan>
          </tspan>
        </text>
      </g>
    </g>
    <g
       transform="matrix(0.03543307,0,0,0.03543307,-62.041987,-86.44947)"
       class="com.sun.star.drawing.CustomShape"
       id="g214">
      <g
         id="id10">
        <path
           d="m 10795,11218 0,0 2,-150 6,-150 9,-150 14,-150 17,-149 22,-148 25,-148 28,-148 33,-147 37,-145 40,-145 44,-144 47,-143 51,-141 55,-140 59,-139 62,-137 65,-136 69,-134 73,-132 76,-130 79,-129 82,-126 86,-124 89,-122 92,-120 95,-118 98,-115 101,-113 104,-110 107,-107 109,-105 112,-102 115,-99 117,-97 120,-93 122,-91 124,-87 127,-84 128,-81 131,-78 133,-74 134,-72 137,-67 138,-65 139,-61 141,-57 143,-54 144,-50 145,-47 147,-43 147,-40 148,-36 150,-32 150,-28 151,-25 151,-21 152,-17 152,-13 152,-9 153,-6 153,-2 0,0 153,2 153,6 152,9 152,13 152,17 151,21 151,25 150,28 150,32 148,36 147,40 147,43 145,47 144,50 143,54 141,57 139,61 138,65 137,67 134,72 133,74 131,78 128,81 127,84 124,87 122,91 120,93 117,97 115,99 112,102 109,105 107,107 104,110 101,113 98,115 95,118 92,120 89,122 86,124 82,126 79,129 76,130 73,132 69,134 65,136 62,137 59,139 55,140 51,141 47,143 44,144 40,145 37,145 33,147 28,148 25,148 22,148 17,149 14,150 9,150 6,150 2,150 -1,0 -2,150 -6,150 -9,150 -14,150 -17,149 -22,148 -25,148 -28,148 -33,147 -37,145 -40,145 -44,144 -47,143 -51,141 -55,140 -59,139 -62,137 -65,136 -69,134 -73,132 -76,130 -79,129 -82,126 -86,124 -89,122 -92,120 -95,118 -98,115 -101,113 -104,110 -107,107 -109,105 -112,102 -115,99 -117,97 -120,93 -122,91 -124,87 -127,84 -128,81 -131,78 -133,74 -134,72 -137,67 -138,65 -139,61 -141,57 -143,54 -144,50 -145,47 -147,43 -147,40 -148,36 -150,32 -150,28 -151,25 -151,21 -152,17 -152,13 -152,9 -153,6 -153,2 0,-1 -153,-2 -153,-6 -152,-9 -152,-13 -152,-17 -151,-21 -151,-25 -150,-28 -150,-32 -148,-36 -147,-40 -147,-43 -145,-47 -144,-50 -143,-54 -141,-57 -139,-61 -138,-65 -137,-67 -134,-72 -133,-74 -131,-78 -128,-81 -127,-84 -124,-87 -122,-91 -120,-93 -117,-97 -115,-99 -112,-102 -109,-105 -107,-107 -104,-110 -101,-113 -98,-115 -95,-118 -92,-120 -89,-122 -86,-124 -82,-126 -79,-129 -76,-130 -73,-132 -69,-134 -65,-136 -62,-137 -59,-139 -55,-140 -51,-141 -47,-143 -44,-144 -40,-145 -37,-145 -33,-147 -28,-148 -25,-148 -22,-148 -17,-149 -14,-150 -9,-150 -6,-150 -2,-150 1,1 z m 0,-5926 0,0 z m 12065,11853 0,0 z"
           id="path217"
           inkscape:connector-curvature="0"
           style="fill:#4f81bd;stroke:none" />
        <path
           d="m 10795,11218 0,0 2,-150 6,-150 9,-150 14,-150 17,-149 22,-148 25,-148 28,-148 33,-147 37,-145 40,-145 44,-144 47,-143 51,-141 55,-140 59,-139 62,-137 65,-136 69,-134 73,-132 76,-130 79,-129 82,-126 86,-124 89,-122 92,-120 95,-118 98,-115 101,-113 104,-110 107,-107 109,-105 112,-102 115,-99 117,-97 120,-93 122,-91 124,-87 127,-84 128,-81 131,-78 133,-74 134,-72 137,-67 138,-65 139,-61 141,-57 143,-54 144,-50 145,-47 147,-43 147,-40 148,-36 150,-32 150,-28 151,-25 151,-21 152,-17 152,-13 152,-9 153,-6 153,-2 0,0 153,2 153,6 152,9 152,13 152,17 151,21 151,25 150,28 150,32 148,36 147,40 147,43 145,47 144,50 143,54 141,57 139,61 138,65 137,67 134,72 133,74 131,78 128,81 127,84 124,87 122,91 120,93 117,97 115,99 112,102 109,105 107,107 104,110 101,113 98,115 95,118 92,120 89,122 86,124 82,126 79,129 76,130 73,132 69,134 65,136 62,137 59,139 55,140 51,141 47,143 44,144 40,145 37,145 33,147 28,148 25,148 22,148 17,149 14,150 9,150 6,150 2,150 -1,0 -2,150 -6,150 -9,150 -14,150 -17,149 -22,148 -25,148 -28,148 -33,147 -37,145 -40,145 -44,144 -47,143 -51,141 -55,140 -59,139 -62,137 -65,136 -69,134 -73,132 -76,130 -79,129 -82,126 -86,124 -89,122 -92,120 -95,118 -98,115 -101,113 -104,110 -107,107 -109,105 -112,102 -115,99 -117,97 -120,93 -122,91 -124,87 -127,84 -128,81 -131,78 -133,74 -134,72 -137,67 -138,65 -139,61 -141,57 -143,54 -144,50 -145,47 -147,43 -147,40 -148,36 -150,32 -150,28 -151,25 -151,21 -152,17 -152,13 -152,9 -153,6 -153,2 0,-1 -153,-2 -153,-6 -152,-9 -152,-13 -152,-17 -151,-21 -151,-25 -150,-28 -150,-32 -148,-36 -147,-40 -147,-43 -145,-47 -144,-50 -143,-54 -141,-57 -139,-61 -138,-65 -137,-67 -134,-72 -133,-74 -131,-78 -128,-81 -127,-84 -124,-87 -122,-91 -120,-93 -117,-97 -115,-99 -112,-102 -109,-105 -107,-107 -104,-110 -101,-113 -98,-115 -95,-118 -92,-120 -89,-122 -86,-124 -82,-126 -79,-129 -76,-130 -73,-132 -69,-134 -65,-136 -62,-137 -59,-139 -55,-140 -51,-141 -47,-143 -44,-144 -40,-145 -37,-145 -33,-147 -28,-148 -25,-148 -22,-148 -17,-149 -14,-150 -9,-150 -6,-150 -2,-150 1,1 z"
           id="path219"
           inkscape:connector-curvature="0"
           style="fill:none;stroke:#3a5f8b;stroke-width:71;stroke-linejoin:round" />
        <text
           class="TextShape"
           id="text221">
          <tspan
             class="TextParagraph"
             font-size="1693px"
             font-weight="400"
             id="tspan223"
             style="font-size:1693px;font-weight:400;font-family:'Calibri, sans-serif'">
            <tspan
               class="TextPosition"
               x="15909"
               y="11896"
               id="tspan225">
              <tspan
                 id="tspan227"
                 style="fill:#ffffff;stroke:none">A2</tspan>
            </tspan>
          </tspan>
        </text>
      </g>
    </g>
  </g>
</svg>
