<?xml version="1.0" encoding="UTF-8" standalone="no"?>
<!-- Created with Inkscape (http://www.inkscape.org/) -->

<svg
   xmlns:dc="http://purl.org/dc/elements/1.1/"
   xmlns:cc="http://creativecommons.org/ns#"
   xmlns:rdf="http://www.w3.org/1999/02/22-rdf-syntax-ns#"
   xmlns:svg="http://www.w3.org/2000/svg"
   xmlns="http://www.w3.org/2000/svg"
   xmlns:sodipodi="http://sodipodi.sourceforge.net/DTD/sodipodi-0.dtd"
   xmlns:inkscape="http://www.inkscape.org/namespaces/inkscape"
   width="800px"
   height="600px"
   id="svg3930"
   version="1.1"
   inkscape:version="0.48.2 r9819"
   sodipodi:docname="New document 3">
  <defs
     id="defs3932" />
  <sodipodi:namedview
     id="base"
     pagecolor="#ffffff"
     bordercolor="#666666"
     borderopacity="1.0"
     inkscape:pageopacity="0.0"
     inkscape:pageshadow="2"
     inkscape:zoom="0.6"
     inkscape:cx="400"
     inkscape:cy="300"
     inkscape:current-layer="layer1"
     inkscape:document-units="px"
     showgrid="false"
     inkscape:window-width="1008"
     inkscape:window-height="641"
     inkscape:window-x="160"
     inkscape:window-y="160"
     inkscape:window-maximized="0" />
  <metadata
     id="metadata3935">
    <rdf:RDF>
      <cc:Work
         rdf:about="">
        <dc:format>image/svg+xml</dc:format>
        <dc:type
           rdf:resource="http://purl.org/dc/dcmitype/StillImage" />
        <dc:title></dc:title>
      </cc:Work>
    </rdf:RDF>
  </metadata>
  <g
     id="layer1"
     inkscape:label="Layer 1"
     inkscape:groupmode="layer">
    <g
       transform="matrix(0.031868,0,0,0.03159065,7.491923,-84.428378)"
       class="com.sun.star.drawing.CustomShape"
       id="g207">
      <g
         id="id9">
        <path
           d="m 8158,9848 0,0 3,-116 9,-116 14,-116 20,-114 26,-113 32,-112 37,-109 42,-108 48,-105 52,-102 58,-99 63,-96 68,-92 72,-89 76,-84 80,-80 84,-76 88,-71 92,-66 94,-60 97,-56 100,-50 103,-44 104,-39 106,-33 108,-27 109,-22 110,-15 110,-9 111,-3 0,0 111,3 110,9 110,15 109,22 108,27 106,33 104,39 103,44 100,50 97,56 94,60 92,66 88,71 84,76 80,80 76,84 72,89 68,92 63,96 58,99 52,102 48,105 42,108 37,109 32,112 26,113 20,114 14,116 9,116 3,116 -1,0 -3,116 -9,116 -14,116 -20,114 -26,113 -32,112 -37,109 -42,108 -48,105 -52,102 -58,99 -63,96 -68,92 -72,89 -76,84 -80,80 -84,76 -88,71 -92,66 -94,60 -97,56 -100,50 -103,44 -104,39 -106,33 -108,27 -109,22 -110,15 -110,9 -111,3 0,-1 -111,-3 -110,-9 -110,-15 -109,-22 -108,-27 -106,-33 -104,-39 -103,-44 -100,-50 -97,-56 -94,-60 -92,-66 -88,-71 -84,-76 -80,-80 -76,-84 -72,-89 -68,-92 -63,-96 -58,-99 -52,-102 -48,-105 -42,-108 -37,-109 -32,-112 -26,-113 -20,-114 -14,-116 -9,-116 -3,-116 1,1 z m 0,-2222 0,0 z m 4233,4445 0,0 z"
           id="path210"
           inkscape:connector-curvature="0"
           style="fill:#10243e;stroke:none" />
        <path
           d="m 8158,9848 0,0 3,-116 9,-116 14,-116 20,-114 26,-113 32,-112 37,-109 42,-108 48,-105 52,-102 58,-99 63,-96 68,-92 72,-89 76,-84 80,-80 84,-76 88,-71 92,-66 94,-60 97,-56 100,-50 103,-44 104,-39 106,-33 108,-27 109,-22 110,-15 110,-9 111,-3 0,0 111,3 110,9 110,15 109,22 108,27 106,33 104,39 103,44 100,50 97,56 94,60 92,66 88,71 84,76 80,80 76,84 72,89 68,92 63,96 58,99 52,102 48,105 42,108 37,109 32,112 26,113 20,114 14,116 9,116 3,116 -1,0 -3,116 -9,116 -14,116 -20,114 -26,113 -32,112 -37,109 -42,108 -48,105 -52,102 -58,99 -63,96 -68,92 -72,89 -76,84 -80,80 -84,76 -88,71 -92,66 -94,60 -97,56 -100,50 -103,44 -104,39 -106,33 -108,27 -109,22 -110,15 -110,9 -111,3 0,-1 -111,-3 -110,-9 -110,-15 -109,-22 -108,-27 -106,-33 -104,-39 -103,-44 -100,-50 -97,-56 -94,-60 -92,-66 -88,-71 -84,-76 -80,-80 -76,-84 -72,-89 -68,-92 -63,-96 -58,-99 -52,-102 -48,-105 -42,-108 -37,-109 -32,-112 -26,-113 -20,-114 -14,-116 -9,-116 -3,-116 1,1 z"
           id="path212"
           inkscape:connector-curvature="0"
           style="fill:none;stroke:#3a5f8b;stroke-width:71;stroke-linejoin:round" />
        <text
           class="TextShape"
           id="text214">
          <tspan
             class="TextParagraph"
             font-size="1693px"
             font-weight="400"
             id="tspan216"
             style="font-size:1693px;font-weight:400;font-family:'Calibri, sans-serif'">
            <tspan
               class="TextPosition"
               x="9356"
               y="10526"
               id="tspan218">
              <tspan
                 id="tspan220"
                 style="fill:#ffffff;stroke:none">A1</tspan>
            </tspan>
          </tspan>
        </text>
      </g>
    </g>
    <g
       transform="matrix(0.031868,0,0,0.03159065,7.491923,-84.428378)"
       class="com.sun.star.drawing.CustomShape"
       id="g222">
      <g
         id="id10">
        <path
           d="m 14182,9848 0,0 3,-116 9,-116 14,-116 20,-114 26,-113 32,-112 37,-109 42,-108 48,-105 52,-102 58,-99 63,-96 68,-92 72,-89 76,-84 80,-80 84,-76 88,-71 92,-66 94,-60 97,-56 100,-50 103,-44 104,-39 106,-33 108,-27 109,-22 110,-15 110,-9 111,-3 0,0 111,3 110,9 110,15 109,22 108,27 106,33 104,39 103,44 100,50 97,56 94,60 92,66 88,71 84,76 80,80 76,84 72,89 68,92 63,96 58,99 52,102 48,105 42,108 37,109 32,112 26,113 20,114 14,116 9,116 3,116 -1,0 -3,116 -9,116 -14,116 -20,114 -26,113 -32,112 -37,109 -42,108 -48,105 -52,102 -58,99 -63,96 -68,92 -72,89 -76,84 -80,80 -84,76 -88,71 -92,66 -94,60 -97,56 -100,50 -103,44 -104,39 -106,33 -108,27 -109,22 -110,15 -110,9 -111,3 0,-1 -111,-3 -110,-9 -110,-15 -109,-22 -108,-27 -106,-33 -104,-39 -103,-44 -100,-50 -97,-56 -94,-60 -92,-66 -88,-71 -84,-76 -80,-80 -76,-84 -72,-89 -68,-92 -63,-96 -58,-99 -52,-102 -48,-105 -42,-108 -37,-109 -32,-112 -26,-113 -20,-114 -14,-116 -9,-116 -3,-116 1,1 z m 0,-2222 0,0 z m 4233,4445 0,0 z"
           id="path225"
           inkscape:connector-curvature="0"
           style="fill:#632523;stroke:none" />
        <path
           d="m 14182,9848 0,0 3,-116 9,-116 14,-116 20,-114 26,-113 32,-112 37,-109 42,-108 48,-105 52,-102 58,-99 63,-96 68,-92 72,-89 76,-84 80,-80 84,-76 88,-71 92,-66 94,-60 97,-56 100,-50 103,-44 104,-39 106,-33 108,-27 109,-22 110,-15 110,-9 111,-3 0,0 111,3 110,9 110,15 109,22 108,27 106,33 104,39 103,44 100,50 97,56 94,60 92,66 88,71 84,76 80,80 76,84 72,89 68,92 63,96 58,99 52,102 48,105 42,108 37,109 32,112 26,113 20,114 14,116 9,116 3,116 -1,0 -3,116 -9,116 -14,116 -20,114 -26,113 -32,112 -37,109 -42,108 -48,105 -52,102 -58,99 -63,96 -68,92 -72,89 -76,84 -80,80 -84,76 -88,71 -92,66 -94,60 -97,56 -100,50 -103,44 -104,39 -106,33 -108,27 -109,22 -110,15 -110,9 -111,3 0,-1 -111,-3 -110,-9 -110,-15 -109,-22 -108,-27 -106,-33 -104,-39 -103,-44 -100,-50 -97,-56 -94,-60 -92,-66 -88,-71 -84,-76 -80,-80 -76,-84 -72,-89 -68,-92 -63,-96 -58,-99 -52,-102 -48,-105 -42,-108 -37,-109 -32,-112 -26,-113 -20,-114 -14,-116 -9,-116 -3,-116 1,1 z"
           id="path227"
           inkscape:connector-curvature="0"
           style="fill:none;stroke:#3a5f8b;stroke-width:71;stroke-linejoin:round" />
        <text
           class="TextShape"
           id="text229">
          <tspan
             class="TextParagraph"
             font-size="1693px"
             font-weight="400"
             id="tspan231"
             style="font-size:1693px;font-weight:400;font-family:'Calibri, sans-serif'">
            <tspan
               class="TextPosition"
               x="15407"
               y="10526"
               id="tspan233">
              <tspan
                 id="tspan235"
                 style="fill:#ffffff;stroke:none">B1</tspan>
            </tspan>
          </tspan>
        </text>
      </g>
    </g>
    <g
       transform="matrix(0.031868,0,0,0.03159065,7.491923,-84.428378)"
       class="com.sun.star.drawing.CustomShape"
       id="g237">
      <g
         id="id11">
        <path
           d="m 19842,9848 0,0 3,-116 9,-116 14,-116 20,-114 26,-113 32,-112 37,-109 42,-108 48,-105 52,-102 58,-99 63,-96 68,-92 72,-89 76,-84 80,-80 84,-76 88,-71 92,-66 94,-60 97,-56 100,-50 103,-44 104,-39 106,-33 108,-27 109,-22 110,-15 110,-9 111,-3 0,0 111,3 110,9 110,15 109,22 108,27 106,33 104,39 103,44 100,50 97,56 94,60 92,66 88,71 84,76 80,80 76,84 72,89 68,92 63,96 58,99 52,102 48,105 42,108 37,109 32,112 26,113 20,114 14,116 9,116 3,116 -1,0 -3,116 -9,116 -14,116 -20,114 -26,113 -32,112 -37,109 -42,108 -48,105 -52,102 -58,99 -63,96 -68,92 -72,89 -76,84 -80,80 -84,76 -88,71 -92,66 -94,60 -97,56 -100,50 -103,44 -104,39 -106,33 -108,27 -109,22 -110,15 -110,9 -111,3 0,-1 -111,-3 -110,-9 -110,-15 -109,-22 -108,-27 -106,-33 -104,-39 -103,-44 -100,-50 -97,-56 -94,-60 -92,-66 -88,-71 -84,-76 -80,-80 -76,-84 -72,-89 -68,-92 -63,-96 -58,-99 -52,-102 -48,-105 -42,-108 -37,-109 -32,-112 -26,-113 -20,-114 -14,-116 -9,-116 -3,-116 1,1 z m 0,-2222 0,0 z m 4233,4445 0,0 z"
           id="path240"
           inkscape:connector-curvature="0"
           style="fill:#4f6228;stroke:none" />
        <path
           d="m 19842,9848 0,0 3,-116 9,-116 14,-116 20,-114 26,-113 32,-112 37,-109 42,-108 48,-105 52,-102 58,-99 63,-96 68,-92 72,-89 76,-84 80,-80 84,-76 88,-71 92,-66 94,-60 97,-56 100,-50 103,-44 104,-39 106,-33 108,-27 109,-22 110,-15 110,-9 111,-3 0,0 111,3 110,9 110,15 109,22 108,27 106,33 104,39 103,44 100,50 97,56 94,60 92,66 88,71 84,76 80,80 76,84 72,89 68,92 63,96 58,99 52,102 48,105 42,108 37,109 32,112 26,113 20,114 14,116 9,116 3,116 -1,0 -3,116 -9,116 -14,116 -20,114 -26,113 -32,112 -37,109 -42,108 -48,105 -52,102 -58,99 -63,96 -68,92 -72,89 -76,84 -80,80 -84,76 -88,71 -92,66 -94,60 -97,56 -100,50 -103,44 -104,39 -106,33 -108,27 -109,22 -110,15 -110,9 -111,3 0,-1 -111,-3 -110,-9 -110,-15 -109,-22 -108,-27 -106,-33 -104,-39 -103,-44 -100,-50 -97,-56 -94,-60 -92,-66 -88,-71 -84,-76 -80,-80 -76,-84 -72,-89 -68,-92 -63,-96 -58,-99 -52,-102 -48,-105 -42,-108 -37,-109 -32,-112 -26,-113 -20,-114 -14,-116 -9,-116 -3,-116 1,1 z"
           id="path242"
           inkscape:connector-curvature="0"
           style="fill:none;stroke:#3a5f8b;stroke-width:71;stroke-linejoin:round" />
        <text
           class="TextShape"
           id="text244">
          <tspan
             class="TextParagraph"
             font-size="1693px"
             font-weight="400"
             id="tspan246"
             style="font-size:1693px;font-weight:400;font-family:'Calibri, sans-serif'">
            <tspan
               class="TextPosition"
               x="21078"
               y="10526"
               id="tspan248">
              <tspan
                 id="tspan250"
                 style="fill:#ffffff;stroke:none">C1</tspan>
            </tspan>
          </tspan>
        </text>
      </g>
    </g>
    <g
       transform="matrix(0.031868,0,0,0.03159065,7.491923,-84.428378)"
       class="com.sun.star.drawing.CustomShape"
       id="g252">
      <g
         id="id12">
        <path
           d="m 8158,15436 0,0 3,-116 9,-116 14,-116 20,-114 26,-113 32,-112 37,-109 42,-108 48,-105 52,-102 58,-99 63,-96 68,-92 72,-89 76,-84 80,-80 84,-76 88,-71 92,-66 94,-60 97,-56 100,-50 103,-44 104,-39 106,-33 108,-27 109,-22 110,-15 110,-9 111,-3 0,0 111,3 110,9 110,15 109,22 108,27 106,33 104,39 103,44 100,50 97,56 94,60 92,66 88,71 84,76 80,80 76,84 72,89 68,92 63,96 58,99 52,102 48,105 42,108 37,109 32,112 26,113 20,114 14,116 9,116 3,116 -1,0 -3,116 -9,116 -14,116 -20,114 -26,113 -32,112 -37,109 -42,108 -48,105 -52,102 -58,99 -63,96 -68,92 -72,89 -76,84 -80,80 -84,76 -88,71 -92,66 -94,60 -97,56 -100,50 -103,44 -104,39 -106,33 -108,27 -109,22 -110,15 -110,9 -111,3 0,-1 -111,-3 -110,-9 -110,-15 -109,-22 -108,-27 -106,-33 -104,-39 -103,-44 -100,-50 -97,-56 -94,-60 -92,-66 -88,-71 -84,-76 -80,-80 -76,-84 -72,-89 -68,-92 -63,-96 -58,-99 -52,-102 -48,-105 -42,-108 -37,-109 -32,-112 -26,-113 -20,-114 -14,-116 -9,-116 -3,-116 1,1 z m 0,-2222 0,0 z m 4233,4445 0,0 z"
           id="path255"
           inkscape:connector-curvature="0"
           style="fill:#4f81bd;stroke:none" />
        <path
           d="m 8158,15436 0,0 3,-116 9,-116 14,-116 20,-114 26,-113 32,-112 37,-109 42,-108 48,-105 52,-102 58,-99 63,-96 68,-92 72,-89 76,-84 80,-80 84,-76 88,-71 92,-66 94,-60 97,-56 100,-50 103,-44 104,-39 106,-33 108,-27 109,-22 110,-15 110,-9 111,-3 0,0 111,3 110,9 110,15 109,22 108,27 106,33 104,39 103,44 100,50 97,56 94,60 92,66 88,71 84,76 80,80 76,84 72,89 68,92 63,96 58,99 52,102 48,105 42,108 37,109 32,112 26,113 20,114 14,116 9,116 3,116 -1,0 -3,116 -9,116 -14,116 -20,114 -26,113 -32,112 -37,109 -42,108 -48,105 -52,102 -58,99 -63,96 -68,92 -72,89 -76,84 -80,80 -84,76 -88,71 -92,66 -94,60 -97,56 -100,50 -103,44 -104,39 -106,33 -108,27 -109,22 -110,15 -110,9 -111,3 0,-1 -111,-3 -110,-9 -110,-15 -109,-22 -108,-27 -106,-33 -104,-39 -103,-44 -100,-50 -97,-56 -94,-60 -92,-66 -88,-71 -84,-76 -80,-80 -76,-84 -72,-89 -68,-92 -63,-96 -58,-99 -52,-102 -48,-105 -42,-108 -37,-109 -32,-112 -26,-113 -20,-114 -14,-116 -9,-116 -3,-116 1,1 z"
           id="path257"
           inkscape:connector-curvature="0"
           style="fill:none;stroke:#3a5f8b;stroke-width:71;stroke-linejoin:round" />
        <text
           class="TextShape"
           id="text259">
          <tspan
             class="TextParagraph"
             font-size="1693px"
             font-weight="400"
             id="tspan261"
             style="font-size:1693px;font-weight:400;font-family:'Calibri, sans-serif'">
            <tspan
               class="TextPosition"
               x="9356"
               y="16114"
               id="tspan263">
              <tspan
                 id="tspan265"
                 style="fill:#ffffff;stroke:none">A2</tspan>
            </tspan>
          </tspan>
        </text>
      </g>
    </g>
    <g
       transform="matrix(0.031868,0,0,0.03159065,7.491923,-84.428378)"
       class="com.sun.star.drawing.CustomShape"
       id="g267">
      <g
         id="id13">
        <path
           d="m 14182,15424 0,0 3,-116 9,-116 14,-116 20,-114 26,-113 32,-112 37,-109 42,-108 48,-105 52,-102 58,-99 63,-96 68,-92 72,-89 76,-84 80,-80 84,-76 88,-71 92,-66 94,-60 97,-56 100,-50 103,-44 104,-39 106,-33 108,-27 109,-22 110,-15 110,-9 111,-3 0,0 111,3 110,9 110,15 109,22 108,27 106,33 104,39 103,44 100,50 97,56 94,60 92,66 88,71 84,76 80,80 76,84 72,89 68,92 63,96 58,99 52,102 48,105 42,108 37,109 32,112 26,113 20,114 14,116 9,116 3,116 -1,0 -3,116 -9,116 -14,116 -20,114 -26,113 -32,112 -37,109 -42,108 -48,105 -52,102 -58,99 -63,96 -68,92 -72,89 -76,84 -80,80 -84,76 -88,71 -92,66 -94,60 -97,56 -100,50 -103,44 -104,39 -106,33 -108,27 -109,22 -110,15 -110,9 -111,3 0,-1 -111,-3 -110,-9 -110,-15 -109,-22 -108,-27 -106,-33 -104,-39 -103,-44 -100,-50 -97,-56 -94,-60 -92,-66 -88,-71 -84,-76 -80,-80 -76,-84 -72,-89 -68,-92 -63,-96 -58,-99 -52,-102 -48,-105 -42,-108 -37,-109 -32,-112 -26,-113 -20,-114 -14,-116 -9,-116 -3,-116 1,1 z m 0,-2222 0,0 z m 4233,4445 0,0 z"
           id="path270"
           inkscape:connector-curvature="0"
           style="fill:#c0504d;stroke:none" />
        <path
           d="m 14182,15424 0,0 3,-116 9,-116 14,-116 20,-114 26,-113 32,-112 37,-109 42,-108 48,-105 52,-102 58,-99 63,-96 68,-92 72,-89 76,-84 80,-80 84,-76 88,-71 92,-66 94,-60 97,-56 100,-50 103,-44 104,-39 106,-33 108,-27 109,-22 110,-15 110,-9 111,-3 0,0 111,3 110,9 110,15 109,22 108,27 106,33 104,39 103,44 100,50 97,56 94,60 92,66 88,71 84,76 80,80 76,84 72,89 68,92 63,96 58,99 52,102 48,105 42,108 37,109 32,112 26,113 20,114 14,116 9,116 3,116 -1,0 -3,116 -9,116 -14,116 -20,114 -26,113 -32,112 -37,109 -42,108 -48,105 -52,102 -58,99 -63,96 -68,92 -72,89 -76,84 -80,80 -84,76 -88,71 -92,66 -94,60 -97,56 -100,50 -103,44 -104,39 -106,33 -108,27 -109,22 -110,15 -110,9 -111,3 0,-1 -111,-3 -110,-9 -110,-15 -109,-22 -108,-27 -106,-33 -104,-39 -103,-44 -100,-50 -97,-56 -94,-60 -92,-66 -88,-71 -84,-76 -80,-80 -76,-84 -72,-89 -68,-92 -63,-96 -58,-99 -52,-102 -48,-105 -42,-108 -37,-109 -32,-112 -26,-113 -20,-114 -14,-116 -9,-116 -3,-116 1,1 z"
           id="path272"
           inkscape:connector-curvature="0"
           style="fill:none;stroke:#8e3b38;stroke-width:71;stroke-linejoin:round" />
        <text
           class="TextShape"
           id="text274">
          <tspan
             class="TextParagraph"
             font-size="1693px"
             font-weight="400"
             id="tspan276"
             style="font-size:1693px;font-weight:400;font-family:'Calibri, sans-serif'">
            <tspan
               class="TextPosition"
               x="15407"
               y="16102"
               id="tspan278">
              <tspan
                 id="tspan280"
                 style="fill:#ffffff;stroke:none">B2</tspan>
            </tspan>
          </tspan>
        </text>
      </g>
    </g>
    <g
       transform="matrix(0.031868,0,0,0.03159065,7.491923,-84.428378)"
       class="com.sun.star.drawing.CustomShape"
       id="g282">
      <g
         id="id14">
        <path
           d="m 19842,15418 0,0 3,-116 9,-116 14,-116 20,-114 26,-113 32,-112 37,-109 42,-108 48,-105 52,-102 58,-99 63,-96 68,-92 72,-89 76,-84 80,-80 84,-76 88,-71 92,-66 94,-60 97,-56 100,-50 103,-44 104,-39 106,-33 108,-27 109,-22 110,-15 110,-9 111,-3 0,0 111,3 110,9 110,15 109,22 108,27 106,33 104,39 103,44 100,50 97,56 94,60 92,66 88,71 84,76 80,80 76,84 72,89 68,92 63,96 58,99 52,102 48,105 42,108 37,109 32,112 26,113 20,114 14,116 9,116 3,116 -1,0 -3,116 -9,116 -14,116 -20,114 -26,113 -32,112 -37,109 -42,108 -48,105 -52,102 -58,99 -63,96 -68,92 -72,89 -76,84 -80,80 -84,76 -88,71 -92,66 -94,60 -97,56 -100,50 -103,44 -104,39 -106,33 -108,27 -109,22 -110,15 -110,9 -111,3 0,-1 -111,-3 -110,-9 -110,-15 -109,-22 -108,-27 -106,-33 -104,-39 -103,-44 -100,-50 -97,-56 -94,-60 -92,-66 -88,-71 -84,-76 -80,-80 -76,-84 -72,-89 -68,-92 -63,-96 -58,-99 -52,-102 -48,-105 -42,-108 -37,-109 -32,-112 -26,-113 -20,-114 -14,-116 -9,-116 -3,-116 1,1 z m 0,-2222 0,0 z m 4233,4445 0,0 z"
           id="path285"
           inkscape:connector-curvature="0"
           style="fill:#9bbb59;stroke:none" />
        <path
           d="m 19842,15418 0,0 3,-116 9,-116 14,-116 20,-114 26,-113 32,-112 37,-109 42,-108 48,-105 52,-102 58,-99 63,-96 68,-92 72,-89 76,-84 80,-80 84,-76 88,-71 92,-66 94,-60 97,-56 100,-50 103,-44 104,-39 106,-33 108,-27 109,-22 110,-15 110,-9 111,-3 0,0 111,3 110,9 110,15 109,22 108,27 106,33 104,39 103,44 100,50 97,56 94,60 92,66 88,71 84,76 80,80 76,84 72,89 68,92 63,96 58,99 52,102 48,105 42,108 37,109 32,112 26,113 20,114 14,116 9,116 3,116 -1,0 -3,116 -9,116 -14,116 -20,114 -26,113 -32,112 -37,109 -42,108 -48,105 -52,102 -58,99 -63,96 -68,92 -72,89 -76,84 -80,80 -84,76 -88,71 -92,66 -94,60 -97,56 -100,50 -103,44 -104,39 -106,33 -108,27 -109,22 -110,15 -110,9 -111,3 0,-1 -111,-3 -110,-9 -110,-15 -109,-22 -108,-27 -106,-33 -104,-39 -103,-44 -100,-50 -97,-56 -94,-60 -92,-66 -88,-71 -84,-76 -80,-80 -76,-84 -72,-89 -68,-92 -63,-96 -58,-99 -52,-102 -48,-105 -42,-108 -37,-109 -32,-112 -26,-113 -20,-114 -14,-116 -9,-116 -3,-116 1,1 z"
           id="path287"
           inkscape:connector-curvature="0"
           style="fill:none;stroke:#728a41;stroke-width:71;stroke-linejoin:round" />
        <text
           class="TextShape"
           id="text289">
          <tspan
             class="TextParagraph"
             font-size="1693px"
             font-weight="400"
             id="tspan291"
             style="font-size:1693px;font-weight:400;font-family:'Calibri, sans-serif'">
            <tspan
               class="TextPosition"
               x="21078"
               y="16096"
               id="tspan293">
              <tspan
                 id="tspan295"
                 style="fill:#ffffff;stroke:none">C2</tspan>
            </tspan>
          </tspan>
        </text>
      </g>
    </g>
    <g
       transform="matrix(0.031868,0,0,0.03159065,7.491923,-84.428378)"
       class="com.sun.star.drawing.CustomShape"
       id="g297">
      <g
         id="id15">
        <text
           class="TextShape"
           id="text300">
          <tspan
             class="TextParagraph"
             font-size="1693px"
             font-weight="400"
             id="tspan302"
             style="font-size:1693px;font-weight:400;font-family:'Calibri, sans-serif'">
            <tspan
               class="TextPosition"
               x="297"
               y="10512"
               id="tspan304">
              <tspan
                 id="tspan306"
                 style="fill:#000000;stroke:none">Choice 1</tspan>
            </tspan>
          </tspan>
        </text>
      </g>
    </g>
    <g
       transform="matrix(0.031868,0,0,0.03159065,7.491923,-84.428378)"
       class="com.sun.star.drawing.CustomShape"
       id="g308">
      <g
         id="id16">
        <text
           class="TextShape"
           id="text311">
          <tspan
             class="TextParagraph"
             font-size="1693px"
             font-weight="400"
             id="tspan313"
             style="font-size:1693px;font-weight:400;font-family:'Calibri, sans-serif'">
            <tspan
               class="TextPosition"
               x="285"
               y="16072"
               id="tspan315">
              <tspan
                 id="tspan317"
                 style="fill:#000000;stroke:none">Choice 2</tspan>
            </tspan>
          </tspan>
        </text>
      </g>
    </g>
    <g
       transform="matrix(0.031868,0,0,0.03159065,7.491923,-84.428378)"
       class="com.sun.star.drawing.CustomShape"
       id="g319">
      <g
         id="id17">
        <text
           class="TextShape"
           id="text322">
          <tspan
             class="TextParagraph"
             font-size="1693px"
             font-weight="400"
             id="tspan324"
             style="font-size:1693px;font-weight:400;font-family:'Calibri, sans-serif'">
            <tspan
               class="TextPosition"
               x="8153"
               y="6348"
               id="tspan326">
              <tspan
                 id="tspan328"
                 style="fill:#000000;stroke:none">Opt. 1</tspan>
            </tspan>
          </tspan>
        </text>
      </g>
    </g>
    <g
       transform="matrix(0.031868,0,0,0.03159065,7.491923,-84.428378)"
       class="com.sun.star.drawing.CustomShape"
       id="g330">
      <g
         id="id18">
        <text
           class="TextShape"
           id="text333">
          <tspan
             class="TextParagraph"
             font-size="1693px"
             font-weight="400"
             id="tspan335"
             style="font-size:1693px;font-weight:400;font-family:'Calibri, sans-serif'">
            <tspan
               class="TextPosition"
               x="13894"
               y="6348"
               id="tspan337">
              <tspan
                 id="tspan339"
                 style="fill:#000000;stroke:none">Opt. 2</tspan>
            </tspan>
          </tspan>
        </text>
      </g>
    </g>
    <g
       transform="matrix(0.031868,0,0,0.03159065,7.491923,-84.428378)"
       class="com.sun.star.drawing.CustomShape"
       id="g341">
      <g
         id="id19">
        <text
           class="TextShape"
           id="text344">
          <tspan
             class="TextParagraph"
             font-size="1693px"
             font-weight="400"
             id="tspan346"
             style="font-size:1693px;font-weight:400;font-family:'Calibri, sans-serif'">
            <tspan
               class="TextPosition"
               x="19680"
               y="6348"
               id="tspan348">
              <tspan
                 id="tspan350"
                 style="fill:#000000;stroke:none">Opt. 3</tspan>
            </tspan>
          </tspan>
        </text>
      </g>
    </g>
  </g>
</svg>
