<?xml version="1.0" encoding="UTF-8" standalone="no"?>
<!-- Created with Inkscape (http://www.inkscape.org/) -->

<svg
   xmlns:dc="http://purl.org/dc/elements/1.1/"
   xmlns:cc="http://creativecommons.org/ns#"
   xmlns:rdf="http://www.w3.org/1999/02/22-rdf-syntax-ns#"
   xmlns:svg="http://www.w3.org/2000/svg"
   xmlns="http://www.w3.org/2000/svg"
   xmlns:sodipodi="http://sodipodi.sourceforge.net/DTD/sodipodi-0.dtd"
   xmlns:inkscape="http://www.inkscape.org/namespaces/inkscape"
   width="400.00015"
   height="466.789"
   id="svg12416"
   version="1.1"
   inkscape:version="0.48.4 r9939"
   sodipodi:docname="DevPct_DensPct.svg">
  <defs
     id="defs12418" />
  <sodipodi:namedview
     id="base"
     pagecolor="#ffffff"
     bordercolor="#666666"
     borderopacity="1.0"
     inkscape:pageopacity="0.0"
     inkscape:pageshadow="2"
     inkscape:zoom="2.2044221"
     inkscape:cx="200.00008"
     inkscape:cy="233.3945"
     inkscape:current-layer="layer1"
     inkscape:document-units="px"
     showgrid="false"
     fit-margin-top="0"
     fit-margin-left="0"
     fit-margin-right="0"
     fit-margin-bottom="0"
     inkscape:window-width="1855"
     inkscape:window-height="1176"
     inkscape:window-x="65"
     inkscape:window-y="24"
     inkscape:window-maximized="1" />
  <metadata
     id="metadata12421">
    <rdf:RDF>
      <cc:Work
         rdf:about="">
        <dc:format>image/svg+xml</dc:format>
        <dc:type
           rdf:resource="http://purl.org/dc/dcmitype/StillImage" />
        <dc:title />
      </cc:Work>
    </rdf:RDF>
  </metadata>
  <g
     id="layer1"
     inkscape:label="Layer 1"
     inkscape:groupmode="layer"
     transform="translate(-789.99992,-733.27217)">
    <path
       inkscape:connector-curvature="0"
       style="fill:#4f81bd;fill-opacity:1;fill-rule:evenodd;stroke:none"
       d="m 791.48937,734.88117 394.08373,0 0,189.19167 -394.08373,0 0,-189.19167 z m 0,0 0,0 z m 394.08373,189.19167 0,0 z"
       id="path12430" />
    <path
       inkscape:connector-curvature="0"
       style="fill:#3a5f8b;fill-opacity:1;fill-rule:evenodd;stroke:none"
       d="m 789.99992,734.88117 c 0,-0.31286 0.0828,-0.53633 0.20687,-0.8045 0.12412,-0.26817 0.28961,-0.44694 0.53786,-0.58103 0.24824,-0.13408 0.4551,-0.22347 0.74472,-0.22347 l 0,1.609 -1.48945,0 z"
       id="path12432" />
    <path
       inkscape:connector-curvature="0"
       style="fill:#3a5f8b;fill-opacity:1;fill-rule:evenodd;stroke:none"
       d="m 791.48937,736.49017 0,-1.609 0,-1.609 394.08373,0 0,1.609 0,1.609 -394.08373,0 z"
       id="path12434" />
    <path
       inkscape:connector-curvature="0"
       style="fill:#3a5f8b;fill-opacity:1;fill-rule:evenodd;stroke:none"
       d="m 1185.5731,733.27217 c 0.2896,0 0.4965,0.0894 0.7447,0.22347 0.2483,0.13409 0.4138,0.31286 0.5379,0.58103 0.1241,0.26817 0.2068,0.49164 0.2068,0.8045 l 0,0 -1.4894,0 0,-1.609 z"
       id="path12436" />
    <path
       inkscape:connector-curvature="0"
       style="fill:#3a5f8b;fill-opacity:1;fill-rule:evenodd;stroke:none"
       d="m 1184.0837,734.88117 1.4894,0 1.4894,0 0,189.19167 -1.4894,0 -1.4894,0 0,-189.19167 z"
       id="path12438" />
    <path
       inkscape:connector-curvature="0"
       style="fill:#3a5f8b;fill-opacity:1;fill-rule:evenodd;stroke:none"
       d="m 1187.0625,924.07284 c 0,0.31286 -0.083,0.53634 -0.2068,0.8045 -0.1241,0.26817 -0.2896,0.44695 -0.5379,0.58103 -0.2482,0.13408 -0.4551,0.22347 -0.7447,0.22347 l 0,-1.609 1.4894,0 z"
       id="path12440" />
    <path
       inkscape:connector-curvature="0"
       style="fill:#3a5f8b;fill-opacity:1;fill-rule:evenodd;stroke:none"
       d="m 1185.5731,922.46384 0,1.609 0,1.609 -394.08373,0 0,-1.609 0,-1.609 394.08373,0 z"
       id="path12442" />
    <path
       inkscape:connector-curvature="0"
       style="fill:#3a5f8b;fill-opacity:1;fill-rule:evenodd;stroke:none"
       d="m 791.48937,925.68184 c -0.28962,0 -0.49648,-0.0894 -0.74472,-0.22347 -0.24825,-0.13408 -0.41374,-0.31286 -0.53786,-0.58103 -0.12412,-0.26816 -0.20687,-0.49164 -0.20687,-0.8045 l 1.48945,0 0,1.609 z"
       id="path12444" />
    <path
       inkscape:connector-curvature="0"
       style="fill:#3a5f8b;fill-opacity:1;fill-rule:evenodd;stroke:none"
       d="m 792.97882,924.07284 -1.48945,0 -1.48945,0 0,-189.19167 1.48945,0 1.48945,0 0,189.19167 z"
       id="path12446" />
    <path
       inkscape:connector-curvature="0"
       style="fill:none;stroke:#f79646;stroke-width:1.53384626px;stroke-linecap:round;stroke-linejoin:round;stroke-opacity:1;stroke-dasharray:none"
       d="m 1180.9392,734.88117 4.6753,5.05048"
       id="path12448" />
    <path
       inkscape:connector-curvature="0"
       style="fill:none;stroke:#f79646;stroke-width:1.53384626px;stroke-linecap:round;stroke-linejoin:round;stroke-opacity:1;stroke-dasharray:none"
       d="m 1174.7332,734.88117 10.8813,11.75465"
       id="path12450" />
    <path
       inkscape:connector-curvature="0"
       style="fill:none;stroke:#f79646;stroke-width:1.53384626px;stroke-linecap:round;stroke-linejoin:round;stroke-opacity:1;stroke-dasharray:none"
       d="m 1168.5272,734.88117 17.0873,18.45881"
       id="path12452" />
    <path
       inkscape:connector-curvature="0"
       style="fill:none;stroke:#f79646;stroke-width:1.53384626px;stroke-linecap:round;stroke-linejoin:round;stroke-opacity:1;stroke-dasharray:none"
       d="m 1162.3211,734.88117 23.2934,25.16298"
       id="path12454" />
    <path
       inkscape:connector-curvature="0"
       style="fill:none;stroke:#f79646;stroke-width:1.53384626px;stroke-linecap:round;stroke-linejoin:round;stroke-opacity:1;stroke-dasharray:none"
       d="m 1156.1151,734.88117 29.4994,31.86715"
       id="path12456" />
    <path
       inkscape:connector-curvature="0"
       style="fill:none;stroke:#f79646;stroke-width:1.53384626px;stroke-linecap:round;stroke-linejoin:round;stroke-opacity:1;stroke-dasharray:none"
       d="m 1149.909,734.88117 35.7055,38.57133"
       id="path12458" />
    <path
       inkscape:connector-curvature="0"
       style="fill:none;stroke:#f79646;stroke-width:1.53384626px;stroke-linecap:round;stroke-linejoin:round;stroke-opacity:1;stroke-dasharray:none"
       d="m 1143.703,734.88117 41.9115,45.27549"
       id="path12460" />
    <path
       inkscape:connector-curvature="0"
       style="fill:none;stroke:#f79646;stroke-width:1.53384626px;stroke-linecap:round;stroke-linejoin:round;stroke-opacity:1;stroke-dasharray:none"
       d="m 1137.4969,734.88117 48.1176,51.97966"
       id="path12462" />
    <path
       inkscape:connector-curvature="0"
       style="fill:none;stroke:#f79646;stroke-width:1.53384626px;stroke-linecap:round;stroke-linejoin:round;stroke-opacity:1;stroke-dasharray:none"
       d="m 1131.2909,734.88117 54.3236,58.68383"
       id="path12464" />
    <path
       inkscape:connector-curvature="0"
       style="fill:none;stroke:#f79646;stroke-width:1.53384626px;stroke-linecap:round;stroke-linejoin:round;stroke-opacity:1;stroke-dasharray:none"
       d="m 1125.0849,734.88117 60.5296,65.388"
       id="path12466" />
    <path
       inkscape:connector-curvature="0"
       style="fill:none;stroke:#f79646;stroke-width:1.53384626px;stroke-linecap:round;stroke-linejoin:round;stroke-opacity:1;stroke-dasharray:none"
       d="m 1118.8788,734.88117 66.7357,72.09217"
       id="path12468" />
    <path
       inkscape:connector-curvature="0"
       style="fill:none;stroke:#f79646;stroke-width:1.53384626px;stroke-linecap:round;stroke-linejoin:round;stroke-opacity:1;stroke-dasharray:none"
       d="m 1112.6728,734.88117 72.9417,78.79634"
       id="path12470" />
    <path
       inkscape:connector-curvature="0"
       style="fill:none;stroke:#f79646;stroke-width:1.53384626px;stroke-linecap:round;stroke-linejoin:round;stroke-opacity:1;stroke-dasharray:none"
       d="m 1106.4667,734.88117 79.1478,85.50051"
       id="path12472" />
    <path
       inkscape:connector-curvature="0"
       style="fill:none;stroke:#f79646;stroke-width:1.53384626px;stroke-linecap:round;stroke-linejoin:round;stroke-opacity:1;stroke-dasharray:none"
       d="m 1100.2607,734.88117 85.3538,92.20468"
       id="path12474" />
    <path
       inkscape:connector-curvature="0"
       style="fill:none;stroke:#f79646;stroke-width:1.53384626px;stroke-linecap:round;stroke-linejoin:round;stroke-opacity:1;stroke-dasharray:none"
       d="m 1094.0547,734.88117 91.5598,98.90885"
       id="path12476" />
    <path
       inkscape:connector-curvature="0"
       style="fill:none;stroke:#f79646;stroke-width:1.53384626px;stroke-linecap:round;stroke-linejoin:round;stroke-opacity:1;stroke-dasharray:none"
       d="m 1087.8486,734.88117 97.7659,105.61302"
       id="path12478" />
    <path
       inkscape:connector-curvature="0"
       style="fill:none;stroke:#f79646;stroke-width:1.53384626px;stroke-linecap:round;stroke-linejoin:round;stroke-opacity:1;stroke-dasharray:none"
       d="m 1081.6426,734.88117 103.9719,112.31719"
       id="path12480" />
    <path
       inkscape:connector-curvature="0"
       style="fill:none;stroke:#f79646;stroke-width:1.53384626px;stroke-linecap:round;stroke-linejoin:round;stroke-opacity:1;stroke-dasharray:none"
       d="m 1075.4365,734.88117 110.178,119.02136"
       id="path12482" />
    <path
       inkscape:connector-curvature="0"
       style="fill:none;stroke:#f79646;stroke-width:1.53384626px;stroke-linecap:round;stroke-linejoin:round;stroke-opacity:1;stroke-dasharray:none"
       d="m 1069.2305,734.88117 116.384,125.72553"
       id="path12484" />
    <path
       inkscape:connector-curvature="0"
       style="fill:none;stroke:#f79646;stroke-width:1.53384626px;stroke-linecap:round;stroke-linejoin:round;stroke-opacity:1;stroke-dasharray:none"
       d="m 1063.0244,734.88117 122.5901,132.4297"
       id="path12486" />
    <path
       inkscape:connector-curvature="0"
       style="fill:none;stroke:#f79646;stroke-width:1.53384626px;stroke-linecap:round;stroke-linejoin:round;stroke-opacity:1;stroke-dasharray:none"
       d="m 1056.8184,734.88117 128.7961,139.13387"
       id="path12488" />
    <path
       inkscape:connector-curvature="0"
       style="fill:none;stroke:#f79646;stroke-width:1.53384626px;stroke-linecap:round;stroke-linejoin:round;stroke-opacity:1;stroke-dasharray:none"
       d="m 1050.6124,734.88117 135.0021,145.83804"
       id="path12490" />
    <path
       inkscape:connector-curvature="0"
       style="fill:none;stroke:#f79646;stroke-width:1.53384626px;stroke-linecap:round;stroke-linejoin:round;stroke-opacity:1;stroke-dasharray:none"
       d="m 1044.4063,734.88117 141.2082,152.54221"
       id="path12492" />
    <path
       inkscape:connector-curvature="0"
       style="fill:none;stroke:#f79646;stroke-width:1.53384626px;stroke-linecap:round;stroke-linejoin:round;stroke-opacity:1;stroke-dasharray:none"
       d="m 1038.2003,734.88117 147.4142,159.24638"
       id="path12494" />
    <path
       inkscape:connector-curvature="0"
       style="fill:none;stroke:#f79646;stroke-width:1.53384626px;stroke-linecap:round;stroke-linejoin:round;stroke-opacity:1;stroke-dasharray:none"
       d="m 1031.9942,734.88117 153.6203,165.95055"
       id="path12496" />
    <path
       inkscape:connector-curvature="0"
       style="fill:none;stroke:#f79646;stroke-width:1.53384626px;stroke-linecap:round;stroke-linejoin:round;stroke-opacity:1;stroke-dasharray:none"
       d="m 1025.7882,734.88117 159.8263,172.65472"
       id="path12498" />
    <path
       inkscape:connector-curvature="0"
       style="fill:none;stroke:#f79646;stroke-width:1.53384626px;stroke-linecap:round;stroke-linejoin:round;stroke-opacity:1;stroke-dasharray:none"
       d="m 1019.5821,734.88117 166.0324,179.35889"
       id="path12500" />
    <path
       inkscape:connector-curvature="0"
       style="fill:none;stroke:#f79646;stroke-width:1.53384626px;stroke-linecap:round;stroke-linejoin:round;stroke-opacity:1;stroke-dasharray:none"
       d="m 1013.3761,734.88117 172.2384,186.06306"
       id="path12502" />
    <path
       inkscape:connector-curvature="0"
       style="fill:none;stroke:#f79646;stroke-width:1.53384626px;stroke-linecap:round;stroke-linejoin:round;stroke-opacity:1;stroke-dasharray:none"
       d="m 1007.1701,734.88117 175.1345,189.19167"
       id="path12504" />
    <path
       inkscape:connector-curvature="0"
       style="fill:none;stroke:#f79646;stroke-width:1.53384626px;stroke-linecap:round;stroke-linejoin:round;stroke-opacity:1;stroke-dasharray:none"
       d="m 1000.964,734.88117 175.1346,189.19167"
       id="path12506" />
    <path
       inkscape:connector-curvature="0"
       style="fill:none;stroke:#f79646;stroke-width:1.53384626px;stroke-linecap:round;stroke-linejoin:round;stroke-opacity:1;stroke-dasharray:none"
       d="M 994.75797,734.88117 1169.8925,924.07284"
       id="path12508" />
    <path
       inkscape:connector-curvature="0"
       style="fill:none;stroke:#f79646;stroke-width:1.53384626px;stroke-linecap:round;stroke-linejoin:round;stroke-opacity:1;stroke-dasharray:none"
       d="M 988.55192,734.88117 1163.6865,924.07284"
       id="path12510" />
    <path
       inkscape:connector-curvature="0"
       style="fill:none;stroke:#f79646;stroke-width:1.53384626px;stroke-linecap:round;stroke-linejoin:round;stroke-opacity:1;stroke-dasharray:none"
       d="m 988.55192,741.58534 168.92848,182.4875"
       id="path12512" />
    <path
       inkscape:connector-curvature="0"
       style="fill:none;stroke:#f79646;stroke-width:1.53384626px;stroke-linecap:round;stroke-linejoin:round;stroke-opacity:1;stroke-dasharray:none"
       d="M 988.55192,748.28951 1151.2744,924.07284"
       id="path12514" />
    <path
       inkscape:connector-curvature="0"
       style="fill:none;stroke:#f79646;stroke-width:1.53384626px;stroke-linecap:round;stroke-linejoin:round;stroke-opacity:1;stroke-dasharray:none"
       d="M 988.55192,754.99368 1145.0683,924.07284"
       id="path12516" />
    <path
       inkscape:connector-curvature="0"
       style="fill:none;stroke:#f79646;stroke-width:1.53384626px;stroke-linecap:round;stroke-linejoin:round;stroke-opacity:1;stroke-dasharray:none"
       d="M 988.55192,761.69785 1138.8623,924.07284"
       id="path12518" />
    <path
       inkscape:connector-curvature="0"
       style="fill:none;stroke:#f79646;stroke-width:1.53384626px;stroke-linecap:round;stroke-linejoin:round;stroke-opacity:1;stroke-dasharray:none"
       d="M 988.55192,768.40202 1132.6563,924.07284"
       id="path12520" />
    <path
       inkscape:connector-curvature="0"
       style="fill:none;stroke:#f79646;stroke-width:1.53384626px;stroke-linecap:round;stroke-linejoin:round;stroke-opacity:1;stroke-dasharray:none"
       d="M 988.55192,775.10619 1126.4502,924.07284"
       id="path12522" />
    <path
       inkscape:connector-curvature="0"
       style="fill:none;stroke:#f79646;stroke-width:1.53384626px;stroke-linecap:round;stroke-linejoin:round;stroke-opacity:1;stroke-dasharray:none"
       d="M 988.55192,781.81036 1120.2442,924.07284"
       id="path12524" />
    <path
       inkscape:connector-curvature="0"
       style="fill:none;stroke:#f79646;stroke-width:1.53384626px;stroke-linecap:round;stroke-linejoin:round;stroke-opacity:1;stroke-dasharray:none"
       d="M 988.55192,788.51453 1114.0381,924.07284"
       id="path12526" />
    <path
       inkscape:connector-curvature="0"
       style="fill:none;stroke:#f79646;stroke-width:1.53384626px;stroke-linecap:round;stroke-linejoin:round;stroke-opacity:1;stroke-dasharray:none"
       d="M 988.55192,795.2187 1107.8321,924.07284"
       id="path12528" />
    <path
       inkscape:connector-curvature="0"
       style="fill:none;stroke:#f79646;stroke-width:1.53384626px;stroke-linecap:round;stroke-linejoin:round;stroke-opacity:1;stroke-dasharray:none"
       d="M 988.55192,801.92287 1101.626,924.07284"
       id="path12530" />
    <path
       inkscape:connector-curvature="0"
       style="fill:none;stroke:#f79646;stroke-width:1.53384626px;stroke-linecap:round;stroke-linejoin:round;stroke-opacity:1;stroke-dasharray:none"
       d="M 988.55192,808.62704 1095.42,924.07284"
       id="path12532" />
    <path
       inkscape:connector-curvature="0"
       style="fill:none;stroke:#f79646;stroke-width:1.53384626px;stroke-linecap:round;stroke-linejoin:round;stroke-opacity:1;stroke-dasharray:none"
       d="M 988.55192,815.33121 1089.2139,924.07284"
       id="path12534" />
    <path
       inkscape:connector-curvature="0"
       style="fill:none;stroke:#f79646;stroke-width:1.53384626px;stroke-linecap:round;stroke-linejoin:round;stroke-opacity:1;stroke-dasharray:none"
       d="m 988.55192,822.03538 94.45598,102.03746"
       id="path12536" />
    <path
       inkscape:connector-curvature="0"
       style="fill:none;stroke:#f79646;stroke-width:1.53384626px;stroke-linecap:round;stroke-linejoin:round;stroke-opacity:1;stroke-dasharray:none"
       d="m 988.55192,828.73955 88.24998,95.33329"
       id="path12538" />
    <path
       inkscape:connector-curvature="0"
       style="fill:none;stroke:#f79646;stroke-width:1.53384626px;stroke-linecap:round;stroke-linejoin:round;stroke-opacity:1;stroke-dasharray:none"
       d="m 988.55192,835.44372 82.04388,88.62912"
       id="path12540" />
    <path
       inkscape:connector-curvature="0"
       style="fill:none;stroke:#f79646;stroke-width:1.53384626px;stroke-linecap:round;stroke-linejoin:round;stroke-opacity:1;stroke-dasharray:none"
       d="m 988.55192,842.14789 75.83788,81.92495"
       id="path12542" />
    <path
       inkscape:connector-curvature="0"
       style="fill:none;stroke:#f79646;stroke-width:1.53384626px;stroke-linecap:round;stroke-linejoin:round;stroke-opacity:1;stroke-dasharray:none"
       d="m 988.55192,848.85206 69.63178,75.22078"
       id="path12544" />
    <path
       inkscape:connector-curvature="0"
       style="fill:none;stroke:#f79646;stroke-width:1.53384626px;stroke-linecap:round;stroke-linejoin:round;stroke-opacity:1;stroke-dasharray:none"
       d="m 988.55192,855.55623 63.42578,68.51661"
       id="path12546" />
    <path
       inkscape:connector-curvature="0"
       style="fill:none;stroke:#f79646;stroke-width:1.53384626px;stroke-linecap:round;stroke-linejoin:round;stroke-opacity:1;stroke-dasharray:none"
       d="m 988.55192,862.2604 57.21968,61.81244"
       id="path12548" />
    <path
       inkscape:connector-curvature="0"
       style="fill:none;stroke:#f79646;stroke-width:1.53384626px;stroke-linecap:round;stroke-linejoin:round;stroke-opacity:1;stroke-dasharray:none"
       d="m 988.55192,868.96457 51.01368,55.10827"
       id="path12550" />
    <path
       inkscape:connector-curvature="0"
       style="fill:none;stroke:#f79646;stroke-width:1.53384626px;stroke-linecap:round;stroke-linejoin:round;stroke-opacity:1;stroke-dasharray:none"
       d="m 988.55192,875.66874 44.80768,48.4041"
       id="path12552" />
    <path
       inkscape:connector-curvature="0"
       style="fill:none;stroke:#f79646;stroke-width:1.53384626px;stroke-linecap:round;stroke-linejoin:round;stroke-opacity:1;stroke-dasharray:none"
       d="m 988.55192,882.3729 38.60158,41.69994"
       id="path12554" />
    <path
       inkscape:connector-curvature="0"
       style="fill:none;stroke:#f79646;stroke-width:1.53384626px;stroke-linecap:round;stroke-linejoin:round;stroke-opacity:1;stroke-dasharray:none"
       d="m 988.55192,889.07708 32.39558,34.99576"
       id="path12556" />
    <path
       inkscape:connector-curvature="0"
       style="fill:none;stroke:#f79646;stroke-width:1.53384626px;stroke-linecap:round;stroke-linejoin:round;stroke-opacity:1;stroke-dasharray:none"
       d="m 988.55192,895.78125 26.18948,28.29159"
       id="path12558" />
    <path
       inkscape:connector-curvature="0"
       style="fill:none;stroke:#f79646;stroke-width:1.53384626px;stroke-linecap:round;stroke-linejoin:round;stroke-opacity:1;stroke-dasharray:none"
       d="m 988.55192,902.48541 19.98348,21.58743"
       id="path12560" />
    <path
       inkscape:connector-curvature="0"
       style="fill:none;stroke:#f79646;stroke-width:1.53384626px;stroke-linecap:round;stroke-linejoin:round;stroke-opacity:1;stroke-dasharray:none"
       d="m 988.55192,909.18959 13.77738,14.88325"
       id="path12562" />
    <path
       inkscape:connector-curvature="0"
       style="fill:none;stroke:#f79646;stroke-width:1.53384626px;stroke-linecap:round;stroke-linejoin:round;stroke-opacity:1;stroke-dasharray:none"
       d="m 988.55192,915.89375 7.57138,8.17909"
       id="path12564" />
    <path
       inkscape:connector-curvature="0"
       style="fill:none;stroke:#f79646;stroke-width:1.53384626px;stroke-linecap:round;stroke-linejoin:round;stroke-opacity:1;stroke-dasharray:none"
       d="m 988.55192,922.59792 1.36533,1.47492"
       id="path12566" />
    <path
       inkscape:connector-curvature="0"
       style="fill:#3a5f8b;fill-opacity:1;fill-rule:evenodd;stroke:none"
       d="m 987.06247,734.88117 c 0,-0.31286 0.0828,-0.53633 0.20687,-0.8045 0.12412,-0.26817 0.28962,-0.44694 0.53786,-0.58103 0.24824,-0.13408 0.45511,-0.22347 0.74472,-0.22347 l 0,1.609 -1.48945,0 z"
       id="path12568" />
    <path
       inkscape:connector-curvature="0"
       style="fill:#3a5f8b;fill-opacity:1;fill-rule:evenodd;stroke:none"
       d="m 988.55192,736.49017 0,-1.609 0,-1.609 197.06258,0 0,1.609 0,1.609 -197.06258,0 z"
       id="path12570" />
    <path
       inkscape:connector-curvature="0"
       style="fill:#3a5f8b;fill-opacity:1;fill-rule:evenodd;stroke:none"
       d="m 1185.6145,733.27217 c 0.2896,0 0.4964,0.0894 0.7447,0.22347 0.2483,0.13409 0.4137,0.31286 0.5379,0.58103 0.1241,0.26817 0.2068,0.49164 0.2068,0.8045 l 0,0 -1.4894,0 0,-1.609 z"
       id="path12572" />
    <path
       inkscape:connector-curvature="0"
       style="fill:#3a5f8b;fill-opacity:1;fill-rule:evenodd;stroke:none"
       d="m 1184.125,734.88117 1.4895,0 1.4894,0 0,189.19167 -1.4894,0 -1.4895,0 0,-189.19167 z"
       id="path12574" />
    <path
       inkscape:connector-curvature="0"
       style="fill:#3a5f8b;fill-opacity:1;fill-rule:evenodd;stroke:none"
       d="m 1187.1039,924.07284 c 0,0.31286 -0.083,0.53634 -0.2068,0.8045 -0.1242,0.26817 -0.2896,0.44695 -0.5379,0.58103 -0.2483,0.13408 -0.4551,0.22347 -0.7447,0.22347 l 0,-1.609 1.4894,0 z"
       id="path12576" />
    <path
       inkscape:connector-curvature="0"
       style="fill:#3a5f8b;fill-opacity:1;fill-rule:evenodd;stroke:none"
       d="m 1185.6145,922.46384 0,1.609 0,1.609 -197.06258,0 0,-1.609 0,-1.609 197.06258,0 z"
       id="path12578" />
    <path
       inkscape:connector-curvature="0"
       style="fill:#3a5f8b;fill-opacity:1;fill-rule:evenodd;stroke:none"
       d="m 988.55192,925.68184 c -0.28961,0 -0.49648,-0.0894 -0.74472,-0.22347 -0.24824,-0.13408 -0.41374,-0.31286 -0.53786,-0.58103 -0.12412,-0.26816 -0.20687,-0.49164 -0.20687,-0.8045 l 1.48945,0 0,1.609 z"
       id="path12580" />
    <path
       inkscape:connector-curvature="0"
       style="fill:#3a5f8b;fill-opacity:1;fill-rule:evenodd;stroke:none"
       d="m 990.04137,924.07284 -1.48945,0 -1.48945,0 0,-189.19167 1.48945,0 1.48945,0 0,189.19167 z"
       id="path12582" />
    <path
       inkscape:connector-curvature="0"
       style="fill:#9bbb59;fill-opacity:1;fill-rule:evenodd;stroke:none"
       d="m 794.4269,1009.2605 183.90574,0 0,189.1917 -183.90574,0 0,-189.1917 z m 0,0 0,0 z m 183.90574,189.1917 0,0 z"
       id="path12584" />
    <path
       inkscape:connector-curvature="0"
       style="fill:#3a5f8b;fill-opacity:1;fill-rule:evenodd;stroke:none"
       d="m 792.93745,1009.2605 c 0,-0.3129 0.0827,-0.5363 0.20687,-0.8045 0.12412,-0.2682 0.28961,-0.447 0.53785,-0.581 0.24824,-0.1341 0.45511,-0.2235 0.74473,-0.2235 l 0,1.609 -1.48945,0 z"
       id="path12586" />
    <path
       inkscape:connector-curvature="0"
       style="fill:#3a5f8b;fill-opacity:1;fill-rule:evenodd;stroke:none"
       d="m 794.4269,1010.8695 0,-1.609 0,-1.609 183.90574,0 0,1.609 0,1.609 -183.90574,0 z"
       id="path12588" />
    <path
       inkscape:connector-curvature="0"
       style="fill:#3a5f8b;fill-opacity:1;fill-rule:evenodd;stroke:none"
       d="m 978.33264,1007.6515 c 0.28961,0 0.49648,0.089 0.74473,0.2235 0.24824,0.134 0.41373,0.3128 0.53785,0.581 0.12412,0.2682 0.20687,0.4916 0.20687,0.8045 l 0,0 -1.48945,0 0,-1.609 z"
       id="path12590" />
    <path
       inkscape:connector-curvature="0"
       style="fill:#3a5f8b;fill-opacity:1;fill-rule:evenodd;stroke:none"
       d="m 976.84319,1009.2605 1.48945,0 1.48945,0 0,189.1917 -1.48945,0 -1.48945,0 0,-189.1917 z"
       id="path12592" />
    <path
       inkscape:connector-curvature="0"
       style="fill:#3a5f8b;fill-opacity:1;fill-rule:evenodd;stroke:none"
       d="m 979.82209,1198.4522 c 0,0.3128 -0.0828,0.5363 -0.20687,0.8045 -0.12412,0.2681 -0.28961,0.4469 -0.53785,0.581 -0.24825,0.1341 -0.45512,0.2235 -0.74473,0.2235 l 0,-1.609 1.48945,0 z"
       id="path12594" />
    <path
       inkscape:connector-curvature="0"
       style="fill:#3a5f8b;fill-opacity:1;fill-rule:evenodd;stroke:none"
       d="m 978.33264,1196.8432 0,1.609 0,1.609 -183.90574,0 0,-1.609 0,-1.609 183.90574,0 z"
       id="path12596" />
    <path
       inkscape:connector-curvature="0"
       style="fill:#3a5f8b;fill-opacity:1;fill-rule:evenodd;stroke:none"
       d="m 794.4269,1200.0612 c -0.28962,0 -0.49649,-0.089 -0.74473,-0.2235 -0.24824,-0.1341 -0.41373,-0.3129 -0.53785,-0.581 -0.12413,-0.2682 -0.20687,-0.4917 -0.20687,-0.8045 l 1.48945,0 0,1.609 z"
       id="path12598" />
    <path
       inkscape:connector-curvature="0"
       style="fill:#3a5f8b;fill-opacity:1;fill-rule:evenodd;stroke:none"
       d="m 795.91635,1198.4522 -1.48945,0 -1.48945,0 0,-189.1917 1.48945,0 1.48945,0 0,189.1917 z"
       id="path12600" />
    <path
       inkscape:connector-curvature="0"
       style="fill:#9bbb59;fill-opacity:0.50684929;fill-rule:evenodd;stroke:none"
       d="m 1004.6049,1009.2605 183.9057,0 0,189.1917 -183.9057,0 0,-189.1917 z m 0,0 0,0 z m 183.9057,189.1917 0,0 z"
       id="path12602" />
    <path
       inkscape:connector-curvature="0"
       style="fill:#3a5f8b;fill-opacity:1;fill-rule:evenodd;stroke:none"
       d="m 1003.1154,1009.2605 c 0,-0.3129 0.083,-0.5363 0.2069,-0.8045 0.1241,-0.2682 0.2896,-0.447 0.5379,-0.581 0.2482,-0.1341 0.4551,-0.2235 0.7447,-0.2235 l 0,1.609 -1.4895,0 z"
       id="path12604" />
    <path
       inkscape:connector-curvature="0"
       style="fill:#3a5f8b;fill-opacity:1;fill-rule:evenodd;stroke:none"
       d="m 1004.6049,1010.8695 0,-1.609 0,-1.609 183.9057,0 0,1.609 0,1.609 -183.9057,0 z"
       id="path12606" />
    <path
       inkscape:connector-curvature="0"
       style="fill:#3a5f8b;fill-opacity:1;fill-rule:evenodd;stroke:none"
       d="m 1188.5106,1007.6515 c 0.2896,0 0.4965,0.089 0.7448,0.2235 0.2482,0.134 0.4137,0.3128 0.5378,0.581 0.1241,0.2682 0.2069,0.4916 0.2069,0.8045 l 0,0 -1.4895,0 0,-1.609 z"
       id="path12608" />
    <path
       inkscape:connector-curvature="0"
       style="fill:#3a5f8b;fill-opacity:1;fill-rule:evenodd;stroke:none"
       d="m 1187.0212,1009.2605 1.4894,0 1.4895,0 0,189.1917 -1.4895,0 -1.4894,0 0,-189.1917 z"
       id="path12610" />
    <path
       inkscape:connector-curvature="0"
       style="fill:#3a5f8b;fill-opacity:1;fill-rule:evenodd;stroke:none"
       d="m 1190.0001,1198.4522 c 0,0.3128 -0.083,0.5363 -0.2069,0.8045 -0.1241,0.2681 -0.2896,0.4469 -0.5378,0.581 -0.2483,0.1341 -0.4552,0.2235 -0.7448,0.2235 l 0,-1.609 1.4895,0 z"
       id="path12612" />
    <path
       inkscape:connector-curvature="0"
       style="fill:#3a5f8b;fill-opacity:1;fill-rule:evenodd;stroke:none"
       d="m 1188.5106,1196.8432 0,1.609 0,1.609 -183.9057,0 0,-1.609 0,-1.609 183.9057,0 z"
       id="path12614" />
    <path
       inkscape:connector-curvature="0"
       style="fill:#3a5f8b;fill-opacity:1;fill-rule:evenodd;stroke:none"
       d="m 1004.6049,1200.0612 c -0.2896,0 -0.4965,-0.089 -0.7447,-0.2235 -0.2483,-0.1341 -0.4138,-0.3129 -0.5379,-0.581 -0.1241,-0.2682 -0.2069,-0.4917 -0.2069,-0.8045 l 1.4895,0 0,1.609 z"
       id="path12616" />
    <path
       inkscape:connector-curvature="0"
       style="fill:#3a5f8b;fill-opacity:1;fill-rule:evenodd;stroke:none"
       d="m 1006.0943,1198.4522 -1.4894,0 -1.4895,0 0,-189.1917 1.4895,0 1.4894,0 0,189.1917 z"
       id="path12618" />
    <text
       xml:space="preserve"
       style="font-size:40px;font-style:normal;font-weight:normal;line-height:125%;letter-spacing:0px;word-spacing:0px;fill:#fcfcff;fill-opacity:1;stroke:none;font-family:Sans"
       x="823.56885"
       y="833.52521"
       id="text3941"
       sodipodi:linespacing="125%"><tspan
         sodipodi:role="line"
         id="tspan3943"
         x="823.56885"
         y="833.52521">Development %</tspan></text>
    <text
       xml:space="preserve"
       style="font-size:40px;font-style:normal;font-weight:normal;line-height:125%;letter-spacing:0px;word-spacing:0px;fill:#000000;fill-opacity:1;stroke:none;font-family:Sans"
       x="889.79932"
       y="1121.1289"
       id="text3945"
       sodipodi:linespacing="125%"><tspan
         sodipodi:role="line"
         id="tspan3947"
         x="889.79932"
         y="1121.1289">Density %</tspan></text>
  </g>
</svg>
