<?xml version="1.0" encoding="UTF-8" standalone="no"?>
<!-- Created with Inkscape (http://www.inkscape.org/) -->

<svg
   xmlns:dc="http://purl.org/dc/elements/1.1/"
   xmlns:cc="http://creativecommons.org/ns#"
   xmlns:rdf="http://www.w3.org/1999/02/22-rdf-syntax-ns#"
   xmlns:svg="http://www.w3.org/2000/svg"
   xmlns="http://www.w3.org/2000/svg"
   xmlns:sodipodi="http://sodipodi.sourceforge.net/DTD/sodipodi-0.dtd"
   xmlns:inkscape="http://www.inkscape.org/namespaces/inkscape"
   width="400.00015"
   height="466.789"
   id="svg12416"
   version="1.1"
   inkscape:version="0.48.4 r9939"
   sodipodi:docname="New document 9">
  <defs
     id="defs12418" />
  <sodipodi:namedview
     id="base"
     pagecolor="#ffffff"
     bordercolor="#666666"
     borderopacity="1.0"
     inkscape:pageopacity="0.0"
     inkscape:pageshadow="2"
     inkscape:zoom="0.3"
     inkscape:cx="-543.33325"
     inkscape:cy="600.06117"
     inkscape:current-layer="layer1"
     inkscape:document-units="px"
     showgrid="false"
     fit-margin-top="0"
     fit-margin-left="0"
     fit-margin-right="0"
     fit-margin-bottom="0"
     inkscape:window-width="1920"
     inkscape:window-height="1017"
     inkscape:window-x="-8"
     inkscape:window-y="-8"
     inkscape:window-maximized="1" />
  <metadata
     id="metadata12421">
    <rdf:RDF>
      <cc:Work
         rdf:about="">
        <dc:format>image/svg+xml</dc:format>
        <dc:type
           rdf:resource="http://purl.org/dc/dcmitype/StillImage" />
        <dc:title></dc:title>
      </cc:Work>
    </rdf:RDF>
  </metadata>
  <g
     id="layer1"
     inkscape:label="Layer 1"
     inkscape:groupmode="layer"
     transform="translate(-789.99992,-733.27217)">
    <g
       id="g12428"
       transform="matrix(0.30676924,0,0,0.30676924,789.99992,733.27217)">
      <path
         id="path12430"
         d="m 4.8552793,5.2449872 1284.6259207,0 0,616.7230828 -1284.6259207,0 0,-616.7230828 z m 0,0 0,0 z M 1289.4812,621.96807 l 0,0 z"
         style="fill:#4f81bd;fill-opacity:1;fill-rule:evenodd;stroke:none"
         inkscape:connector-curvature="0" />
      <path
         id="path12432"
         d="M 0,5.2449872 C 0,4.2251286 0.26973774,3.4966582 0.67434434,2.6224936 1.0789509,1.7483291 1.6184264,1.1655527 2.4276396,0.72847045 3.2368528,0.29138818 3.9111972,0 4.8552793,0 l 0,5.2449872 -4.8552793,0 z"
         style="fill:#3a5f8b;fill-opacity:1;fill-rule:evenodd;stroke:none"
         inkscape:connector-curvature="0" />
      <path
         id="path12434"
         d="m 4.8552793,10.489974 0,-5.2449868 0,-5.2449872 1284.6259207,0 0,5.2449872 0,5.2449868 -1284.6259207,0 z"
         style="fill:#3a5f8b;fill-opacity:1;fill-rule:evenodd;stroke:none"
         inkscape:connector-curvature="0" />
      <path
         id="path12436"
         d="m 1289.4812,0 c 0.9441,0 1.6185,0.29138818 2.4277,0.72847045 0.8092,0.43708225 1.3487,1.01985865 1.7533,1.89402315 0.4046,0.8741646 0.6743,1.602635 0.6743,2.6224936 l 0,0 -4.8553,0 0,-5.2449872 z"
         style="fill:#3a5f8b;fill-opacity:1;fill-rule:evenodd;stroke:none"
         inkscape:connector-curvature="0" />
      <path
         id="path12438"
         d="m 1284.626,5.2449872 4.8552,0 4.8553,0 0,616.7230828 -4.8553,0 -4.8552,0 0,-616.7230828 z"
         style="fill:#3a5f8b;fill-opacity:1;fill-rule:evenodd;stroke:none"
         inkscape:connector-curvature="0" />
      <path
         id="path12440"
         d="m 1294.3365,621.96807 c 0,1.01986 -0.2697,1.74833 -0.6743,2.62249 -0.4046,0.87417 -0.9441,1.45694 -1.7533,1.89403 -0.8092,0.43708 -1.4836,0.72847 -2.4277,0.72847 l 0,-5.24499 4.8553,0 z"
         style="fill:#3a5f8b;fill-opacity:1;fill-rule:evenodd;stroke:none"
         inkscape:connector-curvature="0" />
      <path
         id="path12442"
         d="m 1289.4812,616.72308 0,5.24499 0,5.24499 -1284.6259207,0 0,-5.24499 0,-5.24499 1284.6259207,0 z"
         style="fill:#3a5f8b;fill-opacity:1;fill-rule:evenodd;stroke:none"
         inkscape:connector-curvature="0" />
      <path
         id="path12444"
         d="m 4.8552793,627.21306 c -0.9440821,0 -1.6184265,-0.29139 -2.4276397,-0.72847 C 1.6184264,626.0475 1.0789509,625.46473 0.67434434,624.59056 0.26973774,623.7164 0,622.98793 0,621.96807 l 4.8552793,0 0,5.24499 z"
         style="fill:#3a5f8b;fill-opacity:1;fill-rule:evenodd;stroke:none"
         inkscape:connector-curvature="0" />
      <path
         id="path12446"
         d="m 9.7105585,621.96807 -4.8552792,0 -4.8552793,0 0,-616.7230828 4.8552793,0 4.8552792,0 0,616.7230828 z"
         style="fill:#3a5f8b;fill-opacity:1;fill-rule:evenodd;stroke:none"
         inkscape:connector-curvature="0" />
      <path
         id="path12448"
         d="m 1274.3759,5.2449872 15.2402,16.4634318"
         style="fill:none;stroke:#f79646;stroke-width:0.13486888px;stroke-linecap:round;stroke-linejoin:round;stroke-opacity:1;stroke-dasharray:none"
         inkscape:connector-curvature="0" />
      <path
         id="path12450"
         d="m 1254.1456,5.2449872 35.4705,38.3175458"
         style="fill:none;stroke:#f79646;stroke-width:0.13486888px;stroke-linecap:round;stroke-linejoin:round;stroke-opacity:1;stroke-dasharray:none"
         inkscape:connector-curvature="0" />
      <path
         id="path12452"
         d="m 1233.9153,5.2449872 55.7008,60.1716588"
         style="fill:none;stroke:#f79646;stroke-width:0.13486888px;stroke-linecap:round;stroke-linejoin:round;stroke-opacity:1;stroke-dasharray:none"
         inkscape:connector-curvature="0" />
      <path
         id="path12454"
         d="M 1213.6849,5.2449872 1289.6161,87.27076"
         style="fill:none;stroke:#f79646;stroke-width:0.13486888px;stroke-linecap:round;stroke-linejoin:round;stroke-opacity:1;stroke-dasharray:none"
         inkscape:connector-curvature="0" />
      <path
         id="path12456"
         d="M 1193.4546,5.2449872 1289.6161,109.12487"
         style="fill:none;stroke:#f79646;stroke-width:0.13486888px;stroke-linecap:round;stroke-linejoin:round;stroke-opacity:1;stroke-dasharray:none"
         inkscape:connector-curvature="0" />
      <path
         id="path12458"
         d="M 1173.2243,5.2449872 1289.6161,130.97899"
         style="fill:none;stroke:#f79646;stroke-width:0.13486888px;stroke-linecap:round;stroke-linejoin:round;stroke-opacity:1;stroke-dasharray:none"
         inkscape:connector-curvature="0" />
      <path
         id="path12460"
         d="M 1152.994,5.2449872 1289.6161,152.8331"
         style="fill:none;stroke:#f79646;stroke-width:0.13486888px;stroke-linecap:round;stroke-linejoin:round;stroke-opacity:1;stroke-dasharray:none"
         inkscape:connector-curvature="0" />
      <path
         id="path12462"
         d="M 1132.7636,5.2449872 1289.6161,174.68721"
         style="fill:none;stroke:#f79646;stroke-width:0.13486888px;stroke-linecap:round;stroke-linejoin:round;stroke-opacity:1;stroke-dasharray:none"
         inkscape:connector-curvature="0" />
      <path
         id="path12464"
         d="M 1112.5333,5.2449872 1289.6161,196.54133"
         style="fill:none;stroke:#f79646;stroke-width:0.13486888px;stroke-linecap:round;stroke-linejoin:round;stroke-opacity:1;stroke-dasharray:none"
         inkscape:connector-curvature="0" />
      <path
         id="path12466"
         d="M 1092.303,5.2449872 1289.6161,218.39544"
         style="fill:none;stroke:#f79646;stroke-width:0.13486888px;stroke-linecap:round;stroke-linejoin:round;stroke-opacity:1;stroke-dasharray:none"
         inkscape:connector-curvature="0" />
      <path
         id="path12468"
         d="M 1072.0726,5.2449872 1289.6161,240.24955"
         style="fill:none;stroke:#f79646;stroke-width:0.13486888px;stroke-linecap:round;stroke-linejoin:round;stroke-opacity:1;stroke-dasharray:none"
         inkscape:connector-curvature="0" />
      <path
         id="path12470"
         d="M 1051.8423,5.2449872 1289.6161,262.10367"
         style="fill:none;stroke:#f79646;stroke-width:0.13486888px;stroke-linecap:round;stroke-linejoin:round;stroke-opacity:1;stroke-dasharray:none"
         inkscape:connector-curvature="0" />
      <path
         id="path12472"
         d="M 1031.612,5.2449872 1289.6161,283.95778"
         style="fill:none;stroke:#f79646;stroke-width:0.13486888px;stroke-linecap:round;stroke-linejoin:round;stroke-opacity:1;stroke-dasharray:none"
         inkscape:connector-curvature="0" />
      <path
         id="path12474"
         d="M 1011.3816,5.2449872 1289.6161,305.81189"
         style="fill:none;stroke:#f79646;stroke-width:0.13486888px;stroke-linecap:round;stroke-linejoin:round;stroke-opacity:1;stroke-dasharray:none"
         inkscape:connector-curvature="0" />
      <path
         id="path12476"
         d="M 991.15131,5.2449872 1289.6161,327.66601"
         style="fill:none;stroke:#f79646;stroke-width:0.13486888px;stroke-linecap:round;stroke-linejoin:round;stroke-opacity:1;stroke-dasharray:none"
         inkscape:connector-curvature="0" />
      <path
         id="path12478"
         d="M 970.92098,5.2449872 1289.6161,349.52012"
         style="fill:none;stroke:#f79646;stroke-width:0.13486888px;stroke-linecap:round;stroke-linejoin:round;stroke-opacity:1;stroke-dasharray:none"
         inkscape:connector-curvature="0" />
      <path
         id="path12480"
         d="M 950.69065,5.2449872 1289.6161,371.37424"
         style="fill:none;stroke:#f79646;stroke-width:0.13486888px;stroke-linecap:round;stroke-linejoin:round;stroke-opacity:1;stroke-dasharray:none"
         inkscape:connector-curvature="0" />
      <path
         id="path12482"
         d="M 930.46032,5.2449872 1289.6161,393.22835"
         style="fill:none;stroke:#f79646;stroke-width:0.13486888px;stroke-linecap:round;stroke-linejoin:round;stroke-opacity:1;stroke-dasharray:none"
         inkscape:connector-curvature="0" />
      <path
         id="path12484"
         d="M 910.22999,5.2449872 1289.6161,415.08246"
         style="fill:none;stroke:#f79646;stroke-width:0.13486888px;stroke-linecap:round;stroke-linejoin:round;stroke-opacity:1;stroke-dasharray:none"
         inkscape:connector-curvature="0" />
      <path
         id="path12486"
         d="M 889.99966,5.2449872 1289.6161,436.93658"
         style="fill:none;stroke:#f79646;stroke-width:0.13486888px;stroke-linecap:round;stroke-linejoin:round;stroke-opacity:1;stroke-dasharray:none"
         inkscape:connector-curvature="0" />
      <path
         id="path12488"
         d="M 869.76933,5.2449872 1289.6161,458.79069"
         style="fill:none;stroke:#f79646;stroke-width:0.13486888px;stroke-linecap:round;stroke-linejoin:round;stroke-opacity:1;stroke-dasharray:none"
         inkscape:connector-curvature="0" />
      <path
         id="path12490"
         d="M 849.539,5.2449872 1289.6161,480.6448"
         style="fill:none;stroke:#f79646;stroke-width:0.13486888px;stroke-linecap:round;stroke-linejoin:round;stroke-opacity:1;stroke-dasharray:none"
         inkscape:connector-curvature="0" />
      <path
         id="path12492"
         d="M 829.30867,5.2449872 1289.6161,502.49892"
         style="fill:none;stroke:#f79646;stroke-width:0.13486888px;stroke-linecap:round;stroke-linejoin:round;stroke-opacity:1;stroke-dasharray:none"
         inkscape:connector-curvature="0" />
      <path
         id="path12494"
         d="M 809.07834,5.2449872 1289.6161,524.35303"
         style="fill:none;stroke:#f79646;stroke-width:0.13486888px;stroke-linecap:round;stroke-linejoin:round;stroke-opacity:1;stroke-dasharray:none"
         inkscape:connector-curvature="0" />
      <path
         id="path12496"
         d="M 788.84801,5.2449872 1289.6161,546.20714"
         style="fill:none;stroke:#f79646;stroke-width:0.13486888px;stroke-linecap:round;stroke-linejoin:round;stroke-opacity:1;stroke-dasharray:none"
         inkscape:connector-curvature="0" />
      <path
         id="path12498"
         d="M 768.61768,5.2449872 1289.6161,568.06126"
         style="fill:none;stroke:#f79646;stroke-width:0.13486888px;stroke-linecap:round;stroke-linejoin:round;stroke-opacity:1;stroke-dasharray:none"
         inkscape:connector-curvature="0" />
      <path
         id="path12500"
         d="M 748.38735,5.2449872 1289.6161,589.91537"
         style="fill:none;stroke:#f79646;stroke-width:0.13486888px;stroke-linecap:round;stroke-linejoin:round;stroke-opacity:1;stroke-dasharray:none"
         inkscape:connector-curvature="0" />
      <path
         id="path12502"
         d="M 728.15702,5.2449872 1289.6161,611.76948"
         style="fill:none;stroke:#f79646;stroke-width:0.13486888px;stroke-linecap:round;stroke-linejoin:round;stroke-opacity:1;stroke-dasharray:none"
         inkscape:connector-curvature="0" />
      <path
         id="path12504"
         d="M 707.92669,5.2449872 1278.8266,621.96807"
         style="fill:none;stroke:#f79646;stroke-width:0.13486888px;stroke-linecap:round;stroke-linejoin:round;stroke-opacity:1;stroke-dasharray:none"
         inkscape:connector-curvature="0" />
      <path
         id="path12506"
         d="M 687.69636,5.2449872 1258.5963,621.96807"
         style="fill:none;stroke:#f79646;stroke-width:0.13486888px;stroke-linecap:round;stroke-linejoin:round;stroke-opacity:1;stroke-dasharray:none"
         inkscape:connector-curvature="0" />
      <path
         id="path12508"
         d="M 667.46603,5.2449872 1238.3659,621.96807"
         style="fill:none;stroke:#f79646;stroke-width:0.13486888px;stroke-linecap:round;stroke-linejoin:round;stroke-opacity:1;stroke-dasharray:none"
         inkscape:connector-curvature="0" />
      <path
         id="path12510"
         d="M 647.2357,5.2449872 1218.1356,621.96807"
         style="fill:none;stroke:#f79646;stroke-width:0.13486888px;stroke-linecap:round;stroke-linejoin:round;stroke-opacity:1;stroke-dasharray:none"
         inkscape:connector-curvature="0" />
      <path
         id="path12512"
         d="M 647.2357,27.099101 1197.9053,621.96807"
         style="fill:none;stroke:#f79646;stroke-width:0.13486888px;stroke-linecap:round;stroke-linejoin:round;stroke-opacity:1;stroke-dasharray:none"
         inkscape:connector-curvature="0" />
      <path
         id="path12514"
         d="M 647.2357,48.953214 1177.675,621.96807"
         style="fill:none;stroke:#f79646;stroke-width:0.13486888px;stroke-linecap:round;stroke-linejoin:round;stroke-opacity:1;stroke-dasharray:none"
         inkscape:connector-curvature="0" />
      <path
         id="path12516"
         d="M 647.2357,70.807328 1157.4446,621.96807"
         style="fill:none;stroke:#f79646;stroke-width:0.13486888px;stroke-linecap:round;stroke-linejoin:round;stroke-opacity:1;stroke-dasharray:none"
         inkscape:connector-curvature="0" />
      <path
         id="path12518"
         d="M 647.2357,92.661441 1137.2143,621.96807"
         style="fill:none;stroke:#f79646;stroke-width:0.13486888px;stroke-linecap:round;stroke-linejoin:round;stroke-opacity:1;stroke-dasharray:none"
         inkscape:connector-curvature="0" />
      <path
         id="path12520"
         d="M 647.2357,114.51555 1116.984,621.96807"
         style="fill:none;stroke:#f79646;stroke-width:0.13486888px;stroke-linecap:round;stroke-linejoin:round;stroke-opacity:1;stroke-dasharray:none"
         inkscape:connector-curvature="0" />
      <path
         id="path12522"
         d="m 647.2357,136.36967 449.5179,485.5984"
         style="fill:none;stroke:#f79646;stroke-width:0.13486888px;stroke-linecap:round;stroke-linejoin:round;stroke-opacity:1;stroke-dasharray:none"
         inkscape:connector-curvature="0" />
      <path
         id="path12524"
         d="m 647.2357,158.22378 429.2876,463.74429"
         style="fill:none;stroke:#f79646;stroke-width:0.13486888px;stroke-linecap:round;stroke-linejoin:round;stroke-opacity:1;stroke-dasharray:none"
         inkscape:connector-curvature="0" />
      <path
         id="path12526"
         d="M 647.2357,180.0779 1056.293,621.96807"
         style="fill:none;stroke:#f79646;stroke-width:0.13486888px;stroke-linecap:round;stroke-linejoin:round;stroke-opacity:1;stroke-dasharray:none"
         inkscape:connector-curvature="0" />
      <path
         id="path12528"
         d="m 647.2357,201.93201 388.8269,420.03606"
         style="fill:none;stroke:#f79646;stroke-width:0.13486888px;stroke-linecap:round;stroke-linejoin:round;stroke-opacity:1;stroke-dasharray:none"
         inkscape:connector-curvature="0" />
      <path
         id="path12530"
         d="m 647.2357,223.78612 368.5966,398.18195"
         style="fill:none;stroke:#f79646;stroke-width:0.13486888px;stroke-linecap:round;stroke-linejoin:round;stroke-opacity:1;stroke-dasharray:none"
         inkscape:connector-curvature="0" />
      <path
         id="path12532"
         d="M 647.2357,245.64024 995.60198,621.96807"
         style="fill:none;stroke:#f79646;stroke-width:0.13486888px;stroke-linecap:round;stroke-linejoin:round;stroke-opacity:1;stroke-dasharray:none"
         inkscape:connector-curvature="0" />
      <path
         id="path12534"
         d="M 647.2357,267.49435 975.37165,621.96807"
         style="fill:none;stroke:#f79646;stroke-width:0.13486888px;stroke-linecap:round;stroke-linejoin:round;stroke-opacity:1;stroke-dasharray:none"
         inkscape:connector-curvature="0" />
      <path
         id="path12536"
         d="M 647.2357,289.34846 955.14132,621.96807"
         style="fill:none;stroke:#f79646;stroke-width:0.13486888px;stroke-linecap:round;stroke-linejoin:round;stroke-opacity:1;stroke-dasharray:none"
         inkscape:connector-curvature="0" />
      <path
         id="path12538"
         d="M 647.2357,311.20258 934.91099,621.96807"
         style="fill:none;stroke:#f79646;stroke-width:0.13486888px;stroke-linecap:round;stroke-linejoin:round;stroke-opacity:1;stroke-dasharray:none"
         inkscape:connector-curvature="0" />
      <path
         id="path12540"
         d="M 647.2357,333.05669 914.68066,621.96807"
         style="fill:none;stroke:#f79646;stroke-width:0.13486888px;stroke-linecap:round;stroke-linejoin:round;stroke-opacity:1;stroke-dasharray:none"
         inkscape:connector-curvature="0" />
      <path
         id="path12542"
         d="M 647.2357,354.9108 894.45033,621.96807"
         style="fill:none;stroke:#f79646;stroke-width:0.13486888px;stroke-linecap:round;stroke-linejoin:round;stroke-opacity:1;stroke-dasharray:none"
         inkscape:connector-curvature="0" />
      <path
         id="path12544"
         d="M 647.2357,376.76492 874.22,621.96807"
         style="fill:none;stroke:#f79646;stroke-width:0.13486888px;stroke-linecap:round;stroke-linejoin:round;stroke-opacity:1;stroke-dasharray:none"
         inkscape:connector-curvature="0" />
      <path
         id="path12546"
         d="M 647.2357,398.61903 853.98967,621.96807"
         style="fill:none;stroke:#f79646;stroke-width:0.13486888px;stroke-linecap:round;stroke-linejoin:round;stroke-opacity:1;stroke-dasharray:none"
         inkscape:connector-curvature="0" />
      <path
         id="path12548"
         d="M 647.2357,420.47314 833.75934,621.96807"
         style="fill:none;stroke:#f79646;stroke-width:0.13486888px;stroke-linecap:round;stroke-linejoin:round;stroke-opacity:1;stroke-dasharray:none"
         inkscape:connector-curvature="0" />
      <path
         id="path12550"
         d="M 647.2357,442.32726 813.52901,621.96807"
         style="fill:none;stroke:#f79646;stroke-width:0.13486888px;stroke-linecap:round;stroke-linejoin:round;stroke-opacity:1;stroke-dasharray:none"
         inkscape:connector-curvature="0" />
      <path
         id="path12552"
         d="m 647.2357,464.18137 146.06298,157.7867"
         style="fill:none;stroke:#f79646;stroke-width:0.13486888px;stroke-linecap:round;stroke-linejoin:round;stroke-opacity:1;stroke-dasharray:none"
         inkscape:connector-curvature="0" />
      <path
         id="path12554"
         d="M 647.2357,486.03548 773.06835,621.96807"
         style="fill:none;stroke:#f79646;stroke-width:0.13486888px;stroke-linecap:round;stroke-linejoin:round;stroke-opacity:1;stroke-dasharray:none"
         inkscape:connector-curvature="0" />
      <path
         id="path12556"
         d="M 647.2357,507.8896 752.83802,621.96807"
         style="fill:none;stroke:#f79646;stroke-width:0.13486888px;stroke-linecap:round;stroke-linejoin:round;stroke-opacity:1;stroke-dasharray:none"
         inkscape:connector-curvature="0" />
      <path
         id="path12558"
         d="m 647.2357,529.74371 85.37199,92.22436"
         style="fill:none;stroke:#f79646;stroke-width:0.13486888px;stroke-linecap:round;stroke-linejoin:round;stroke-opacity:1;stroke-dasharray:none"
         inkscape:connector-curvature="0" />
      <path
         id="path12560"
         d="m 647.2357,551.59782 65.14166,70.37025"
         style="fill:none;stroke:#f79646;stroke-width:0.13486888px;stroke-linecap:round;stroke-linejoin:round;stroke-opacity:1;stroke-dasharray:none"
         inkscape:connector-curvature="0" />
      <path
         id="path12562"
         d="m 647.2357,573.45194 44.91133,48.51613"
         style="fill:none;stroke:#f79646;stroke-width:0.13486888px;stroke-linecap:round;stroke-linejoin:round;stroke-opacity:1;stroke-dasharray:none"
         inkscape:connector-curvature="0" />
      <path
         id="path12564"
         d="m 647.2357,595.30605 24.681,26.66202"
         style="fill:none;stroke:#f79646;stroke-width:0.13486888px;stroke-linecap:round;stroke-linejoin:round;stroke-opacity:1;stroke-dasharray:none"
         inkscape:connector-curvature="0" />
      <path
         id="path12566"
         d="m 647.2357,617.16016 4.45067,4.80791"
         style="fill:none;stroke:#f79646;stroke-width:0.13486888px;stroke-linecap:round;stroke-linejoin:round;stroke-opacity:1;stroke-dasharray:none"
         inkscape:connector-curvature="0" />
      <path
         id="path12568"
         d="m 642.38042,5.2449872 c 0,-1.0198586 0.26974,-1.748329 0.67434,-2.6224936 0.40461,-0.8741645 0.94409,-1.4569409 1.7533,-1.89402315 C 645.61727,0.29138818 646.29162,0 647.2357,0 l 0,5.2449872 -4.85528,0 z"
         style="fill:#3a5f8b;fill-opacity:1;fill-rule:evenodd;stroke:none"
         inkscape:connector-curvature="0" />
      <path
         id="path12570"
         d="m 647.2357,10.489974 0,-5.2449868 0,-5.2449872 642.3804,0 0,5.2449872 0,5.2449868 -642.3804,0 z"
         style="fill:#3a5f8b;fill-opacity:1;fill-rule:evenodd;stroke:none"
         inkscape:connector-curvature="0" />
      <path
         id="path12572"
         d="m 1289.6161,0 c 0.9441,0 1.6184,0.29138818 2.4277,0.72847045 0.8092,0.43708225 1.3486,1.01985865 1.7533,1.89402315 0.4046,0.8741646 0.6743,1.602635 0.6743,2.6224936 l 0,0 -4.8553,0 0,-5.2449872 z"
         style="fill:#3a5f8b;fill-opacity:1;fill-rule:evenodd;stroke:none"
         inkscape:connector-curvature="0" />
      <path
         id="path12574"
         d="m 1284.7608,5.2449872 4.8553,0 4.8553,0 0,616.7230828 -4.8553,0 -4.8553,0 0,-616.7230828 z"
         style="fill:#3a5f8b;fill-opacity:1;fill-rule:evenodd;stroke:none"
         inkscape:connector-curvature="0" />
      <path
         id="path12576"
         d="m 1294.4714,621.96807 c 0,1.01986 -0.2697,1.74833 -0.6743,2.62249 -0.4047,0.87417 -0.9441,1.45694 -1.7533,1.89403 -0.8093,0.43708 -1.4836,0.72847 -2.4277,0.72847 l 0,-5.24499 4.8553,0 z"
         style="fill:#3a5f8b;fill-opacity:1;fill-rule:evenodd;stroke:none"
         inkscape:connector-curvature="0" />
      <path
         id="path12578"
         d="m 1289.6161,616.72308 0,5.24499 0,5.24499 -642.3804,0 0,-5.24499 0,-5.24499 642.3804,0 z"
         style="fill:#3a5f8b;fill-opacity:1;fill-rule:evenodd;stroke:none"
         inkscape:connector-curvature="0" />
      <path
         id="path12580"
         d="m 647.2357,627.21306 c -0.94408,0 -1.61843,-0.29139 -2.42764,-0.72847 -0.80921,-0.43709 -1.34869,-1.01986 -1.7533,-1.89403 -0.4046,-0.87416 -0.67434,-1.60263 -0.67434,-2.62249 l 4.85528,0 0,5.24499 z"
         style="fill:#3a5f8b;fill-opacity:1;fill-rule:evenodd;stroke:none"
         inkscape:connector-curvature="0" />
      <path
         id="path12582"
         d="m 652.09098,621.96807 -4.85528,0 -4.85528,0 0,-616.7230828 4.85528,0 4.85528,0 0,616.7230828 z"
         style="fill:#3a5f8b;fill-opacity:1;fill-rule:evenodd;stroke:none"
         inkscape:connector-curvature="0" />
      <path
         id="path12584"
         d="m 14.430969,899.661 599.492121,0 0,616.7231 -599.492121,0 0,-616.7231 z m 0,0 0,0 z m 599.492121,616.7231 0,0 z"
         style="fill:#9bbb59;fill-opacity:1;fill-rule:evenodd;stroke:none"
         inkscape:connector-curvature="0" />
      <path
         id="path12586"
         d="m 9.5756896,899.661 c 0,-1.01985 0.2697378,-1.74832 0.6743444,-2.62249 0.404607,-0.87416 0.944082,-1.45694 1.753295,-1.89402 0.809213,-0.43708 1.483558,-0.72847 2.42764,-0.72847 l 0,5.24498 -4.8552794,0 z"
         style="fill:#3a5f8b;fill-opacity:1;fill-rule:evenodd;stroke:none"
         inkscape:connector-curvature="0" />
      <path
         id="path12588"
         d="m 14.430969,904.90599 0,-5.24499 0,-5.24498 599.492121,0 0,5.24498 0,5.24499 -599.492121,0 z"
         style="fill:#3a5f8b;fill-opacity:1;fill-rule:evenodd;stroke:none"
         inkscape:connector-curvature="0" />
      <path
         id="path12590"
         d="m 613.92309,894.41602 c 0.94408,0 1.61842,0.29139 2.42764,0.72847 0.80921,0.43708 1.34869,1.01986 1.75329,1.89402 0.40461,0.87417 0.67435,1.60264 0.67435,2.62249 l 0,0 -4.85528,0 0,-5.24498 z"
         style="fill:#3a5f8b;fill-opacity:1;fill-rule:evenodd;stroke:none"
         inkscape:connector-curvature="0" />
      <path
         id="path12592"
         d="m 609.06781,899.661 4.85528,0 4.85528,0 0,616.7231 -4.85528,0 -4.85528,0 0,-616.7231 z"
         style="fill:#3a5f8b;fill-opacity:1;fill-rule:evenodd;stroke:none"
         inkscape:connector-curvature="0" />
      <path
         id="path12594"
         d="m 618.77837,1516.3841 c 0,1.0198 -0.26974,1.7483 -0.67435,2.6225 -0.4046,0.8741 -0.94408,1.4569 -1.75329,1.894 -0.80922,0.4371 -1.48356,0.7285 -2.42764,0.7285 l 0,-5.245 4.85528,0 z"
         style="fill:#3a5f8b;fill-opacity:1;fill-rule:evenodd;stroke:none"
         inkscape:connector-curvature="0" />
      <path
         id="path12596"
         d="m 613.92309,1511.1391 0,5.245 0,5.245 -599.492121,0 0,-5.245 0,-5.245 599.492121,0 z"
         style="fill:#3a5f8b;fill-opacity:1;fill-rule:evenodd;stroke:none"
         inkscape:connector-curvature="0" />
      <path
         id="path12598"
         d="m 14.430969,1521.6291 c -0.944082,0 -1.618427,-0.2914 -2.42764,-0.7285 -0.809213,-0.4371 -1.348688,-1.0199 -1.753295,-1.894 -0.4046066,-0.8742 -0.6743444,-1.6027 -0.6743444,-2.6225 l 4.8552794,0 0,5.245 z"
         style="fill:#3a5f8b;fill-opacity:1;fill-rule:evenodd;stroke:none"
         inkscape:connector-curvature="0" />
      <path
         id="path12600"
         d="m 19.286248,1516.3841 -4.855279,0 -4.8552794,0 0,-616.7231 4.8552794,0 4.855279,0 0,616.7231 z"
         style="fill:#3a5f8b;fill-opacity:1;fill-rule:evenodd;stroke:none"
         inkscape:connector-curvature="0" />
      <path
         id="path12602"
         d="m 699.56482,899.661 599.49208,0 0,616.7231 -599.49208,0 0,-616.7231 z m 0,0 0,0 z m 599.49208,616.7231 0,0 z"
         style="fill:#9bbb59;fill-opacity:1;fill-rule:evenodd;stroke:none"
         inkscape:connector-curvature="0" />
      <path
         id="path12604"
         d="m 694.70954,899.661 c 0,-1.01985 0.26974,-1.74832 0.67434,-2.62249 0.40461,-0.87416 0.94409,-1.45694 1.7533,-1.89402 0.80921,-0.43708 1.48356,-0.72847 2.42764,-0.72847 l 0,5.24498 -4.85528,0 z"
         style="fill:#3a5f8b;fill-opacity:1;fill-rule:evenodd;stroke:none"
         inkscape:connector-curvature="0" />
      <path
         id="path12606"
         d="m 699.56482,904.90599 0,-5.24499 0,-5.24498 599.49208,0 0,5.24498 0,5.24499 -599.49208,0 z"
         style="fill:#3a5f8b;fill-opacity:1;fill-rule:evenodd;stroke:none"
         inkscape:connector-curvature="0" />
      <path
         id="path12608"
         d="m 1299.0569,894.41602 c 0.9441,0 1.6185,0.29139 2.4277,0.72847 0.8092,0.43708 1.3487,1.01986 1.7533,1.89402 0.4046,0.87417 0.6743,1.60264 0.6743,2.62249 l 0,0 -4.8553,0 0,-5.24498 z"
         style="fill:#3a5f8b;fill-opacity:1;fill-rule:evenodd;stroke:none"
         inkscape:connector-curvature="0" />
      <path
         id="path12610"
         d="m 1294.2017,899.661 4.8552,0 4.8553,0 0,616.7231 -4.8553,0 -4.8552,0 0,-616.7231 z"
         style="fill:#3a5f8b;fill-opacity:1;fill-rule:evenodd;stroke:none"
         inkscape:connector-curvature="0" />
      <path
         id="path12612"
         d="m 1303.9122,1516.3841 c 0,1.0198 -0.2697,1.7483 -0.6743,2.6225 -0.4046,0.8741 -0.9441,1.4569 -1.7533,1.894 -0.8092,0.4371 -1.4836,0.7285 -2.4277,0.7285 l 0,-5.245 4.8553,0 z"
         style="fill:#3a5f8b;fill-opacity:1;fill-rule:evenodd;stroke:none"
         inkscape:connector-curvature="0" />
      <path
         id="path12614"
         d="m 1299.0569,1511.1391 0,5.245 0,5.245 -599.49208,0 0,-5.245 0,-5.245 599.49208,0 z"
         style="fill:#3a5f8b;fill-opacity:1;fill-rule:evenodd;stroke:none"
         inkscape:connector-curvature="0" />
      <path
         id="path12616"
         d="m 699.56482,1521.6291 c -0.94408,0 -1.61843,-0.2914 -2.42764,-0.7285 -0.80921,-0.4371 -1.34869,-1.0199 -1.7533,-1.894 -0.4046,-0.8742 -0.67434,-1.6027 -0.67434,-2.6225 l 4.85528,0 0,5.245 z"
         style="fill:#3a5f8b;fill-opacity:1;fill-rule:evenodd;stroke:none"
         inkscape:connector-curvature="0" />
      <path
         id="path12618"
         d="m 704.4201,1516.3841 -4.85528,0 -4.85528,0 0,-616.7231 4.85528,0 4.85528,0 0,616.7231 z"
         style="fill:#3a5f8b;fill-opacity:1;fill-rule:evenodd;stroke:none"
         inkscape:connector-curvature="0" />
    </g>
  </g>
</svg>
