<?xml version="1.0" encoding="UTF-8" standalone="no"?>
<!-- Created with Inkscape (http://www.inkscape.org/) -->

<svg
   xmlns:dc="http://purl.org/dc/elements/1.1/"
   xmlns:cc="http://creativecommons.org/ns#"
   xmlns:rdf="http://www.w3.org/1999/02/22-rdf-syntax-ns#"
   xmlns:svg="http://www.w3.org/2000/svg"
   xmlns="http://www.w3.org/2000/svg"
   xmlns:sodipodi="http://sodipodi.sourceforge.net/DTD/sodipodi-0.dtd"
   xmlns:inkscape="http://www.inkscape.org/namespaces/inkscape"
   width="400"
   height="635.92224"
   id="svg12720"
   version="1.1"
   inkscape:version="0.48.4 r9939"
   sodipodi:docname="New document 11">
  <defs
     id="defs12722" />
  <sodipodi:namedview
     id="base"
     pagecolor="#ffffff"
     bordercolor="#666666"
     borderopacity="1.0"
     inkscape:pageopacity="0.0"
     inkscape:pageshadow="2"
     inkscape:zoom="0.3"
     inkscape:cx="-543.33333"
     inkscape:cy="614.62779"
     inkscape:current-layer="layer1"
     inkscape:document-units="px"
     showgrid="false"
     fit-margin-top="0"
     fit-margin-left="0"
     fit-margin-right="0"
     fit-margin-bottom="0"
     inkscape:window-width="1920"
     inkscape:window-height="1017"
     inkscape:window-x="-8"
     inkscape:window-y="-8"
     inkscape:window-maximized="1" />
  <metadata
     id="metadata12725">
    <rdf:RDF>
      <cc:Work
         rdf:about="">
        <dc:format>image/svg+xml</dc:format>
        <dc:type
           rdf:resource="http://purl.org/dc/dcmitype/StillImage" />
        <dc:title></dc:title>
      </cc:Work>
    </rdf:RDF>
  </metadata>
  <g
     id="layer1"
     inkscape:label="Layer 1"
     inkscape:groupmode="layer"
     transform="translate(-790,-578.70555)">
    <g
       id="g12732"
       transform="matrix(0.43541949,0,0,0.43541949,790,578.70555)">
      <path
         id="path12734"
         d="m 4.0753611,5.1385206 910.5035989,0 0,1450.2046794 -910.5035989,0 0,-1450.2046794 z m 0,0 0,0 z M 914.57896,1455.3432 l 0,0 z"
         style="fill:#9bbb59;fill-opacity:1;fill-rule:evenodd;stroke:none"
         inkscape:connector-curvature="0" />
      <path
         id="path12736"
         d="M 0,5.1385206 C 0,4.1393638 0.22640895,3.4256804 0.56602238,2.5692603 0.9056358,1.7128402 1.3584537,1.1418935 2.0376806,0.71368342 2.7169074,0.28547337 3.2829298,0 4.0753611,0 l 0,5.1385206 -4.0753611,0 z"
         style="fill:#3a5f8b;fill-opacity:1;fill-rule:evenodd;stroke:none"
         inkscape:connector-curvature="0" />
      <path
         id="path12738"
         d="m 4.0753611,10.277041 0,-5.1385204 0,-5.1385206 910.5035989,0 0,5.1385206 0,5.1385204 -910.5035989,0 z"
         style="fill:#3a5f8b;fill-opacity:1;fill-rule:evenodd;stroke:none"
         inkscape:connector-curvature="0" />
      <path
         id="path12740"
         d="m 914.57896,0 c 0.79243,0 1.35845,0.28547337 2.03768,0.71368342 0.67922,0.42821008 1.13204,0.99915678 1.47166,1.85557688 0.33961,0.8564201 0.56602,1.5701035 0.56602,2.5692603 l 0,0 -4.07536,0 0,-5.1385206 z"
         style="fill:#3a5f8b;fill-opacity:1;fill-rule:evenodd;stroke:none"
         inkscape:connector-curvature="0" />
      <path
         id="path12742"
         d="m 910.5036,5.1385206 4.07536,0 4.07536,0 0,1450.2046794 -4.07536,0 -4.07536,0 0,-1450.2046794 z"
         style="fill:#3a5f8b;fill-opacity:1;fill-rule:evenodd;stroke:none"
         inkscape:connector-curvature="0" />
      <path
         id="path12744"
         d="m 918.65432,1455.3432 c 0,0.9992 -0.22641,1.7129 -0.56602,2.5693 -0.33962,0.8564 -0.79244,1.4274 -1.47166,1.8556 -0.67923,0.4282 -1.24525,0.7137 -2.03768,0.7137 l 0,-5.1386 4.07536,0 z"
         style="fill:#3a5f8b;fill-opacity:1;fill-rule:evenodd;stroke:none"
         inkscape:connector-curvature="0" />
      <path
         id="path12746"
         d="m 914.57896,1450.2047 0,5.1385 0,5.1386 -910.5035989,0 0,-5.1386 0,-5.1385 910.5035989,0 z"
         style="fill:#3a5f8b;fill-opacity:1;fill-rule:evenodd;stroke:none"
         inkscape:connector-curvature="0" />
      <path
         id="path12748"
         d="m 4.0753611,1460.4818 c -0.7924313,0 -1.3584537,-0.2855 -2.0376805,-0.7137 -0.6792269,-0.4282 -1.1320448,-0.9992 -1.47165822,-1.8556 C 0.22640895,1457.0561 0,1456.3424 0,1455.3432 l 4.0753611,0 0,5.1386 z"
         style="fill:#3a5f8b;fill-opacity:1;fill-rule:evenodd;stroke:none"
         inkscape:connector-curvature="0" />
      <path
         id="path12750"
         d="m 8.1507222,1455.3432 -4.0753611,0 L 0,1455.3432 0,5.1385206 l 4.0753611,0 4.0753611,0 0,1450.2046794 z"
         style="fill:#3a5f8b;fill-opacity:1;fill-rule:evenodd;stroke:none"
         inkscape:connector-curvature="0" />
      <path
         id="path12752"
         d="m 4.0753611,5.1385206 910.5035989,0 0,1268.9290794 -910.5035989,0 0,-1268.9290794 z m 0,0 0,0 z M 914.57896,1274.0676 l 0,0 z"
         style="fill:#c0504d;fill-opacity:1;fill-rule:evenodd;stroke:none"
         inkscape:connector-curvature="0" />
      <path
         id="path12754"
         d="M 0,5.1385206 C 0,4.1393638 0.22640895,3.4256804 0.56602238,2.5692603 0.9056358,1.7128402 1.3584537,1.1418935 2.0376806,0.71368342 2.7169074,0.28547337 3.2829298,0 4.0753611,0 l 0,5.1385206 -4.0753611,0 z"
         style="fill:#3a5f8b;fill-opacity:1;fill-rule:evenodd;stroke:none"
         inkscape:connector-curvature="0" />
      <path
         id="path12756"
         d="m 4.0753611,10.277041 0,-5.1385204 0,-5.1385206 910.5035989,0 0,5.1385206 0,5.1385204 -910.5035989,0 z"
         style="fill:#3a5f8b;fill-opacity:1;fill-rule:evenodd;stroke:none"
         inkscape:connector-curvature="0" />
      <path
         id="path12758"
         d="m 914.57896,0 c 0.79243,0 1.35845,0.28547337 2.03768,0.71368342 0.67922,0.42821008 1.13204,0.99915678 1.47166,1.85557688 0.33961,0.8564201 0.56602,1.5701035 0.56602,2.5692603 l 0,0 -4.07536,0 0,-5.1385206 z"
         style="fill:#3a5f8b;fill-opacity:1;fill-rule:evenodd;stroke:none"
         inkscape:connector-curvature="0" />
      <path
         id="path12760"
         d="m 910.5036,5.1385206 4.07536,0 4.07536,0 0,1268.9290794 -4.07536,0 -4.07536,0 0,-1268.9290794 z"
         style="fill:#3a5f8b;fill-opacity:1;fill-rule:evenodd;stroke:none"
         inkscape:connector-curvature="0" />
      <path
         id="path12762"
         d="m 918.65432,1274.0676 c 0,0.9992 -0.22641,1.7129 -0.56602,2.5693 -0.33962,0.8564 -0.79244,1.4274 -1.47166,1.8556 -0.67923,0.4282 -1.24525,0.7137 -2.03768,0.7137 l 0,-5.1386 4.07536,0 z"
         style="fill:#3a5f8b;fill-opacity:1;fill-rule:evenodd;stroke:none"
         inkscape:connector-curvature="0" />
      <path
         id="path12764"
         d="m 914.57896,1268.9291 0,5.1385 0,5.1386 -910.5035989,0 0,-5.1386 0,-5.1385 910.5035989,0 z"
         style="fill:#3a5f8b;fill-opacity:1;fill-rule:evenodd;stroke:none"
         inkscape:connector-curvature="0" />
      <path
         id="path12766"
         d="m 4.0753611,1279.2062 c -0.7924313,0 -1.3584537,-0.2855 -2.0376805,-0.7137 -0.6792269,-0.4282 -1.1320448,-0.9992 -1.47165822,-1.8556 C 0.22640895,1275.7805 0,1275.0668 0,1274.0676 l 4.0753611,0 0,5.1386 z"
         style="fill:#3a5f8b;fill-opacity:1;fill-rule:evenodd;stroke:none"
         inkscape:connector-curvature="0" />
      <path
         id="path12768"
         d="m 8.1507222,1274.0676 -4.0753611,0 L 0,1274.0676 0,5.1385206 l 4.0753611,0 4.0753611,0 0,1268.9290794 z"
         style="fill:#3a5f8b;fill-opacity:1;fill-rule:evenodd;stroke:none"
         inkscape:connector-curvature="0" />
      <text
         id="text12770"
         style="font-size:71.88484192px;font-style:normal;font-weight:normal;text-align:start;text-anchor:start;fill:#ffffff;font-family:Calibri"
         y="675.85822"
         x="230.48431"
         xml:space="preserve">New Place Type</text>
      <path
         id="path12772"
         d="m 4.0753611,1092.7921 910.5035989,0 0,181.2755 -910.5035989,0 0,-181.2755 z m 0,0 0,0 z m 910.5035989,181.2755 0,0 z"
         style="fill:#eeece1;fill-opacity:1;fill-rule:evenodd;stroke:none"
         inkscape:connector-curvature="0" />
      <path
         id="path12774"
         d="m 0,1092.7921 c 0,-0.9992 0.22640895,-1.7129 0.56602238,-2.5693 0.33961342,-0.8564 0.79243132,-1.4274 1.47165822,-1.8556 0.6792268,-0.4282 1.2452492,-0.7137 2.0376805,-0.7137 l 0,5.1386 -4.0753611,0 z"
         style="fill:#3a5f8b;fill-opacity:1;fill-rule:evenodd;stroke:none"
         inkscape:connector-curvature="0" />
      <path
         id="path12776"
         d="m 4.0753611,1097.9306 0,-5.1385 0,-5.1386 910.5035989,0 0,5.1386 0,5.1385 -910.5035989,0 z"
         style="fill:#3a5f8b;fill-opacity:1;fill-rule:evenodd;stroke:none"
         inkscape:connector-curvature="0" />
      <path
         id="path12778"
         d="m 914.57896,1087.6535 c 0.79243,0 1.35845,0.2855 2.03768,0.7137 0.67922,0.4282 1.13204,0.9992 1.47166,1.8556 0.33961,0.8564 0.56602,1.5701 0.56602,2.5693 l 0,0 -4.07536,0 0,-5.1386 z"
         style="fill:#3a5f8b;fill-opacity:1;fill-rule:evenodd;stroke:none"
         inkscape:connector-curvature="0" />
      <path
         id="path12780"
         d="m 910.5036,1092.7921 4.07536,0 4.07536,0 0,181.2755 -4.07536,0 -4.07536,0 0,-181.2755 z"
         style="fill:#3a5f8b;fill-opacity:1;fill-rule:evenodd;stroke:none"
         inkscape:connector-curvature="0" />
      <path
         id="path12782"
         d="m 918.65432,1274.0676 c 0,0.9992 -0.22641,1.7129 -0.56602,2.5693 -0.33962,0.8564 -0.79244,1.4274 -1.47166,1.8556 -0.67923,0.4282 -1.24525,0.7137 -2.03768,0.7137 l 0,-5.1386 4.07536,0 z"
         style="fill:#3a5f8b;fill-opacity:1;fill-rule:evenodd;stroke:none"
         inkscape:connector-curvature="0" />
      <path
         id="path12784"
         d="m 914.57896,1268.9291 0,5.1385 0,5.1386 -910.5035989,0 0,-5.1386 0,-5.1385 910.5035989,0 z"
         style="fill:#3a5f8b;fill-opacity:1;fill-rule:evenodd;stroke:none"
         inkscape:connector-curvature="0" />
      <path
         id="path12786"
         d="m 4.0753611,1279.2062 c -0.7924313,0 -1.3584537,-0.2855 -2.0376805,-0.7137 -0.6792269,-0.4282 -1.1320448,-0.9992 -1.47165822,-1.8556 C 0.22640895,1275.7805 0,1275.0668 0,1274.0676 l 4.0753611,0 0,5.1386 z"
         style="fill:#3a5f8b;fill-opacity:1;fill-rule:evenodd;stroke:none"
         inkscape:connector-curvature="0" />
      <path
         id="path12788"
         d="m 8.1507222,1274.0676 -4.0753611,0 -4.0753611,0 0,-181.2755 4.0753611,0 4.0753611,0 0,181.2755 z"
         style="fill:#3a5f8b;fill-opacity:1;fill-rule:evenodd;stroke:none"
         inkscape:connector-curvature="0" />
      <text
         id="text12790"
         style="font-size:71.88484192px;font-style:normal;font-weight:normal;text-align:start;text-anchor:start;fill:#000000;font-family:Calibri"
         y="1219.6851"
         x="353.8772"
         xml:space="preserve">No Use</text>
      <text
         id="text12792"
         style="font-size:71.88484192px;font-style:normal;font-weight:normal;text-align:start;text-anchor:start;fill:#000000;font-family:Calibri"
         y="1417.3752"
         x="238.52184"
         xml:space="preserve">Prior Condition</text>
    </g>
  </g>
</svg>
