<?xml version="1.0" encoding="UTF-8" standalone="no"?>
<!-- Created with Inkscape (http://www.inkscape.org/) -->

<svg
   xmlns:dc="http://purl.org/dc/elements/1.1/"
   xmlns:cc="http://creativecommons.org/ns#"
   xmlns:rdf="http://www.w3.org/1999/02/22-rdf-syntax-ns#"
   xmlns:svg="http://www.w3.org/2000/svg"
   xmlns="http://www.w3.org/2000/svg"
   xmlns:sodipodi="http://sodipodi.sourceforge.net/DTD/sodipodi-0.dtd"
   xmlns:inkscape="http://www.inkscape.org/namespaces/inkscape"
   width="800px"
   height="600px"
   id="svg5098"
   version="1.1"
   inkscape:version="0.48.2 r9819"
   sodipodi:docname="New document 7">
  <defs
     id="defs5100" />
  <sodipodi:namedview
     id="base"
     pagecolor="#ffffff"
     bordercolor="#666666"
     borderopacity="1.0"
     inkscape:pageopacity="0.0"
     inkscape:pageshadow="2"
     inkscape:zoom="0.6"
     inkscape:cx="400"
     inkscape:cy="300"
     inkscape:current-layer="layer1"
     inkscape:document-units="px"
     showgrid="false"
     inkscape:window-width="1181"
     inkscape:window-height="738"
     inkscape:window-x="32"
     inkscape:window-y="32"
     inkscape:window-maximized="0" />
  <metadata
     id="metadata5103">
    <rdf:RDF>
      <cc:Work
         rdf:about="">
        <dc:format>image/svg+xml</dc:format>
        <dc:type
           rdf:resource="http://purl.org/dc/dcmitype/StillImage" />
        <dc:title></dc:title>
      </cc:Work>
    </rdf:RDF>
  </metadata>
  <g
     id="layer1"
     inkscape:label="Layer 1"
     inkscape:groupmode="layer">
    <g
       transform="matrix(0.03543307,0,0,0.03543307,-15.242774,-102.25918)"
       class="com.sun.star.drawing.CustomShape"
       id="g4318">
      <g
         id="id8">
        <path
           d="m 3567,12117 0,0 2,-168 7,-167 11,-167 16,-167 21,-167 25,-165 29,-166 34,-164 39,-164 42,-163 48,-161 51,-161 56,-159 60,-158 65,-156 69,-155 72,-153 78,-152 81,-149 85,-148 89,-145 93,-143 97,-141 101,-139 104,-136 108,-134 112,-131 115,-129 119,-126 122,-123 126,-119 128,-117 132,-114 135,-111 137,-108 141,-104 144,-101 146,-97 148,-94 152,-91 153,-86 156,-84 158,-79 161,-76 162,-72 164,-68 166,-64 168,-60 169,-56 170,-52 173,-49 173,-44 174,-40 176,-35 176,-32 177,-28 178,-23 179,-19 179,-15 179,-10 179,-7 180,-2 0,0 180,2 179,6 179,11 179,15 179,19 178,23 177,28 176,31 176,36 174,40 173,44 172,48 171,53 169,56 168,60 166,64 164,68 162,72 161,76 158,79 156,83 153,87 152,90 148,94 146,98 144,101 140,104 138,108 135,110 132,114 128,117 126,120 122,123 119,126 115,128 112,132 108,133 104,137 101,138 97,141 93,144 89,145 85,148 81,149 77,152 73,153 69,155 65,156 60,158 56,159 51,161 48,161 42,163 39,164 34,164 29,165 25,166 21,167 16,167 11,167 7,167 2,168 0,0 -2,168 -7,167 -11,167 -16,167 -21,167 -25,166 -29,165 -34,164 -39,164 -42,163 -48,161 -51,161 -56,159 -60,158 -65,156 -69,155 -73,153 -77,152 -81,149 -85,148 -89,145 -93,144 -97,141 -101,138 -104,137 -109,133 -111,132 -116,128 -118,126 -122,123 -126,120 -129,117 -131,114 -135,110 -138,108 -141,104 -143,101 -146,98 -149,94 -151,90 -154,87 -156,83 -158,79 -160,76 -162,72 -165,68 -166,64 -167,60 -170,56 -170,53 -172,48 -174,44 -174,40 -176,36 -176,31 -177,28 -178,23 -179,19 -179,15 -179,11 -179,6 -180,2 0,-1 -180,-2 -179,-6 -179,-11 -179,-15 -179,-19 -178,-23 -177,-28 -176,-31 -176,-36 -174,-40 -174,-44 -172,-48 -170,-53 -170,-56 -167,-60 -166,-64 -165,-68 -162,-72 -160,-76 -158,-79 -156,-83 -154,-87 -151,-90 -149,-94 -146,-98 -143,-101 -141,-104 -138,-108 -135,-110 -131,-114 -129,-117 -126,-120 -122,-123 -118,-126 -116,-128 -111,-132 -109,-133 -104,-137 -101,-138 -97,-141 -93,-144 -89,-145 -85,-148 -81,-149 -77,-152 -73,-153 -69,-155 -65,-156 -60,-158 -56,-159 -51,-161 -48,-161 -42,-163 -39,-164 -34,-164 -29,-165 -25,-166 -21,-167 -16,-167 -11,-167 -7,-167 -2,-168 2,1 z m 0,-6614 0,0 z m 14182,13229 0,0 z"
           id="path4321"
           inkscape:connector-curvature="0"
           style="fill:#f2f2f2;stroke:none" />
        <path
           d="m 3567,12117 0,0 2,-168 7,-167 11,-167 16,-167 21,-167 25,-165 29,-166 34,-164 39,-164 42,-163 48,-161 51,-161 56,-159 60,-158 65,-156 69,-155 72,-153 78,-152 81,-149 85,-148 89,-145 93,-143 97,-141 101,-139 104,-136 108,-134 112,-131 115,-129 119,-126 122,-123 126,-119 128,-117 132,-114 135,-111 137,-108 141,-104 144,-101 146,-97 148,-94 152,-91 153,-86 156,-84 158,-79 161,-76 162,-72 164,-68 166,-64 168,-60 169,-56 170,-52 173,-49 173,-44 174,-40 176,-35 176,-32 177,-28 178,-23 179,-19 179,-15 179,-10 179,-7 180,-2 0,0 180,2 179,6 179,11 179,15 179,19 178,23 177,28 176,31 176,36 174,40 173,44 172,48 171,53 169,56 168,60 166,64 164,68 162,72 161,76 158,79 156,83 153,87 152,90 148,94 146,98 144,101 140,104 138,108 135,110 132,114 128,117 126,120 122,123 119,126 115,128 112,132 108,133 104,137 101,138 97,141 93,144 89,145 85,148 81,149 77,152 73,153 69,155 65,156 60,158 56,159 51,161 48,161 42,163 39,164 34,164 29,165 25,166 21,167 16,167 11,167 7,167 2,168 0,0 -2,168 -7,167 -11,167 -16,167 -21,167 -25,166 -29,165 -34,164 -39,164 -42,163 -48,161 -51,161 -56,159 -60,158 -65,156 -69,155 -73,153 -77,152 -81,149 -85,148 -89,145 -93,144 -97,141 -101,138 -104,137 -109,133 -111,132 -116,128 -118,126 -122,123 -126,120 -129,117 -131,114 -135,110 -138,108 -141,104 -143,101 -146,98 -149,94 -151,90 -154,87 -156,83 -158,79 -160,76 -162,72 -165,68 -166,64 -167,60 -170,56 -170,53 -172,48 -174,44 -174,40 -176,36 -176,31 -177,28 -178,23 -179,19 -179,15 -179,11 -179,6 -180,2 0,-1 -180,-2 -179,-6 -179,-11 -179,-15 -179,-19 -178,-23 -177,-28 -176,-31 -176,-36 -174,-40 -174,-44 -172,-48 -170,-53 -170,-56 -167,-60 -166,-64 -165,-68 -162,-72 -160,-76 -158,-79 -156,-83 -154,-87 -151,-90 -149,-94 -146,-98 -143,-101 -141,-104 -138,-108 -135,-110 -131,-114 -129,-117 -126,-120 -122,-123 -118,-126 -116,-128 -111,-132 -109,-133 -104,-137 -101,-138 -97,-141 -93,-144 -89,-145 -85,-148 -81,-149 -77,-152 -73,-153 -69,-155 -65,-156 -60,-158 -56,-159 -51,-161 -48,-161 -42,-163 -39,-164 -34,-164 -29,-165 -25,-166 -21,-167 -16,-167 -11,-167 -7,-167 -2,-168 2,1 z"
           id="path4323"
           inkscape:connector-curvature="0"
           style="fill:none;stroke:#3a5f8b;stroke-width:71;stroke-linejoin:round" />
      </g>
    </g>
    <g
       transform="matrix(0.03543307,0,0,0.03543307,-15.242774,-102.25918)"
       class="com.sun.star.drawing.CustomShape"
       id="g4336">
      <g
         id="id10">
        <path
           d="m 1451,15980 0,0 3,-116 9,-116 14,-116 20,-114 26,-113 32,-112 37,-109 42,-108 48,-105 52,-102 58,-99 63,-96 68,-92 72,-89 76,-84 80,-80 84,-76 88,-71 92,-66 94,-60 97,-56 100,-50 103,-44 104,-39 106,-33 108,-27 109,-22 110,-15 110,-9 111,-3 0,0 111,3 110,9 110,15 109,22 108,27 106,33 104,39 103,44 100,50 97,56 94,60 92,66 88,71 84,76 80,80 76,84 72,89 68,92 63,96 58,99 52,102 48,105 42,108 37,109 32,112 26,113 20,114 14,116 9,116 3,116 -1,0 -3,116 -9,116 -14,116 -20,114 -26,113 -32,112 -37,109 -42,108 -48,105 -52,102 -58,99 -63,96 -68,92 -72,89 -76,84 -80,80 -84,76 -88,71 -92,66 -94,60 -97,56 -100,50 -103,44 -104,39 -106,33 -108,27 -109,22 -110,15 -110,9 -111,3 0,-1 -111,-3 -110,-9 -110,-15 -109,-22 -108,-27 -106,-33 -104,-39 -103,-44 -100,-50 -97,-56 -94,-60 -92,-66 -88,-71 -84,-76 -80,-80 -76,-84 -72,-89 -68,-92 -63,-96 -58,-99 -52,-102 -48,-105 -42,-108 -37,-109 -32,-112 -26,-113 -20,-114 -14,-116 -9,-116 -3,-116 1,1 z m 0,-2222 0,0 z m 4233,4445 0,0 z"
           id="path4339"
           inkscape:connector-curvature="0"
           style="fill:#c0504d;stroke:none" />
        <path
           d="m 1451,15980 0,0 3,-116 9,-116 14,-116 20,-114 26,-113 32,-112 37,-109 42,-108 48,-105 52,-102 58,-99 63,-96 68,-92 72,-89 76,-84 80,-80 84,-76 88,-71 92,-66 94,-60 97,-56 100,-50 103,-44 104,-39 106,-33 108,-27 109,-22 110,-15 110,-9 111,-3 0,0 111,3 110,9 110,15 109,22 108,27 106,33 104,39 103,44 100,50 97,56 94,60 92,66 88,71 84,76 80,80 76,84 72,89 68,92 63,96 58,99 52,102 48,105 42,108 37,109 32,112 26,113 20,114 14,116 9,116 3,116 -1,0 -3,116 -9,116 -14,116 -20,114 -26,113 -32,112 -37,109 -42,108 -48,105 -52,102 -58,99 -63,96 -68,92 -72,89 -76,84 -80,80 -84,76 -88,71 -92,66 -94,60 -97,56 -100,50 -103,44 -104,39 -106,33 -108,27 -109,22 -110,15 -110,9 -111,3 0,-1 -111,-3 -110,-9 -110,-15 -109,-22 -108,-27 -106,-33 -104,-39 -103,-44 -100,-50 -97,-56 -94,-60 -92,-66 -88,-71 -84,-76 -80,-80 -76,-84 -72,-89 -68,-92 -63,-96 -58,-99 -52,-102 -48,-105 -42,-108 -37,-109 -32,-112 -26,-113 -20,-114 -14,-116 -9,-116 -3,-116 1,1 z"
           id="path4341"
           inkscape:connector-curvature="0"
           style="fill:none;stroke:#8e3b38;stroke-width:71;stroke-linejoin:round" />
        <text
           class="TextShape"
           id="text4343">
          <tspan
             class="TextParagraph"
             font-size="1693px"
             font-weight="400"
             id="tspan4345"
             style="font-size:1693px;font-weight:400;font-family:'Calibri, sans-serif'">
            <tspan
               class="TextPosition"
               x="3106"
               y="16658"
               id="tspan4347">
              <tspan
                 id="tspan4349"
                 style="fill:#ffffff;stroke:none">B</tspan>
            </tspan>
          </tspan>
        </text>
      </g>
    </g>
    <g
       transform="matrix(0.03543307,0,0,0.03543307,-15.242774,-102.25918)"
       class="com.sun.star.drawing.CustomShape"
       id="g4351">
      <g
         id="id11">
        <path
           d="m 4657,6985 0,0 3,-116 9,-116 14,-116 20,-114 26,-113 32,-112 37,-109 42,-108 48,-105 52,-102 58,-99 63,-96 68,-92 72,-89 76,-84 80,-80 84,-76 88,-71 92,-66 94,-60 97,-56 100,-50 103,-44 104,-39 106,-33 108,-27 109,-22 110,-15 110,-9 111,-3 0,0 111,3 110,9 110,15 109,22 108,27 106,33 104,39 103,44 100,50 97,56 94,60 92,66 88,71 84,76 80,80 76,84 72,89 68,92 63,96 58,99 52,102 48,105 42,108 37,109 32,112 26,113 20,114 14,116 9,116 3,116 -1,0 -3,116 -9,116 -14,116 -20,114 -26,113 -32,112 -37,109 -42,108 -48,105 -52,102 -58,99 -63,96 -68,92 -72,89 -76,84 -80,80 -84,76 -88,71 -92,66 -94,60 -97,56 -100,50 -103,44 -104,39 -106,33 -108,27 -109,22 -110,15 -110,9 -111,3 0,-1 -111,-3 -110,-9 -110,-15 -109,-22 -108,-27 -106,-33 -104,-39 -103,-44 -100,-50 -97,-56 -94,-60 -92,-66 -88,-71 -84,-76 -80,-80 -76,-84 -72,-89 -68,-92 -63,-96 -58,-99 -52,-102 -48,-105 -42,-108 -37,-109 -32,-112 -26,-113 -20,-114 -14,-116 -9,-116 -3,-116 1,1 z m 0,-2222 0,0 z m 4233,4445 0,0 z"
           id="path4354"
           inkscape:connector-curvature="0"
           style="fill:#4f81bd;stroke:none" />
        <path
           d="m 4657,6985 0,0 3,-116 9,-116 14,-116 20,-114 26,-113 32,-112 37,-109 42,-108 48,-105 52,-102 58,-99 63,-96 68,-92 72,-89 76,-84 80,-80 84,-76 88,-71 92,-66 94,-60 97,-56 100,-50 103,-44 104,-39 106,-33 108,-27 109,-22 110,-15 110,-9 111,-3 0,0 111,3 110,9 110,15 109,22 108,27 106,33 104,39 103,44 100,50 97,56 94,60 92,66 88,71 84,76 80,80 76,84 72,89 68,92 63,96 58,99 52,102 48,105 42,108 37,109 32,112 26,113 20,114 14,116 9,116 3,116 -1,0 -3,116 -9,116 -14,116 -20,114 -26,113 -32,112 -37,109 -42,108 -48,105 -52,102 -58,99 -63,96 -68,92 -72,89 -76,84 -80,80 -84,76 -88,71 -92,66 -94,60 -97,56 -100,50 -103,44 -104,39 -106,33 -108,27 -109,22 -110,15 -110,9 -111,3 0,-1 -111,-3 -110,-9 -110,-15 -109,-22 -108,-27 -106,-33 -104,-39 -103,-44 -100,-50 -97,-56 -94,-60 -92,-66 -88,-71 -84,-76 -80,-80 -76,-84 -72,-89 -68,-92 -63,-96 -58,-99 -52,-102 -48,-105 -42,-108 -37,-109 -32,-112 -26,-113 -20,-114 -14,-116 -9,-116 -3,-116 1,1 z"
           id="path4356"
           inkscape:connector-curvature="0"
           style="fill:none;stroke:#3a5f8b;stroke-width:71;stroke-linejoin:round" />
        <text
           class="TextShape"
           id="text4358">
          <tspan
             class="TextParagraph"
             font-size="1693px"
             font-weight="400"
             id="tspan4360"
             style="font-size:1693px;font-weight:400;font-family:'Calibri, sans-serif'">
            <tspan
               class="TextPosition"
               x="6284"
               y="7663"
               id="tspan4362">
              <tspan
                 id="tspan4364"
                 style="fill:#ffffff;stroke:none">A</tspan>
            </tspan>
          </tspan>
        </text>
      </g>
    </g>
    <g
       transform="matrix(0.03543307,0,0,0.03543307,-15.242774,-102.25918)"
       class="com.sun.star.drawing.CustomShape"
       id="g4366">
      <g
         id="id12">
        <path
           d="m 9525,13017 0,0 3,-116 9,-116 14,-116 20,-114 26,-113 32,-112 37,-109 42,-108 48,-105 52,-102 58,-99 63,-96 68,-92 72,-89 76,-84 80,-80 84,-76 88,-71 92,-66 94,-60 97,-56 100,-50 103,-44 104,-39 106,-33 108,-27 109,-22 110,-15 110,-9 111,-3 0,0 111,3 110,9 110,15 109,22 108,27 106,33 104,39 103,44 100,50 97,56 94,60 92,66 88,71 84,76 80,80 76,84 72,89 68,92 63,96 58,99 52,102 48,105 42,108 37,109 32,112 26,113 20,114 14,116 9,116 3,116 -1,0 -3,116 -9,116 -14,116 -20,114 -26,113 -32,112 -37,109 -42,108 -48,105 -52,102 -58,99 -63,96 -68,92 -72,89 -76,84 -80,80 -84,76 -88,71 -92,66 -94,60 -97,56 -100,50 -103,44 -104,39 -106,33 -108,27 -109,22 -110,15 -110,9 -111,3 0,-1 -111,-3 -110,-9 -110,-15 -109,-22 -108,-27 -106,-33 -104,-39 -103,-44 -100,-50 -97,-56 -94,-60 -92,-66 -88,-71 -84,-76 -80,-80 -76,-84 -72,-89 -68,-92 -63,-96 -58,-99 -52,-102 -48,-105 -42,-108 -37,-109 -32,-112 -26,-113 -20,-114 -14,-116 -9,-116 -3,-116 1,1 z m 0,-2222 0,0 z m 4233,4445 0,0 z"
           id="path4369"
           inkscape:connector-curvature="0"
           style="fill:#9bbb59;stroke:none" />
        <path
           d="m 9525,13017 0,0 3,-116 9,-116 14,-116 20,-114 26,-113 32,-112 37,-109 42,-108 48,-105 52,-102 58,-99 63,-96 68,-92 72,-89 76,-84 80,-80 84,-76 88,-71 92,-66 94,-60 97,-56 100,-50 103,-44 104,-39 106,-33 108,-27 109,-22 110,-15 110,-9 111,-3 0,0 111,3 110,9 110,15 109,22 108,27 106,33 104,39 103,44 100,50 97,56 94,60 92,66 88,71 84,76 80,80 76,84 72,89 68,92 63,96 58,99 52,102 48,105 42,108 37,109 32,112 26,113 20,114 14,116 9,116 3,116 -1,0 -3,116 -9,116 -14,116 -20,114 -26,113 -32,112 -37,109 -42,108 -48,105 -52,102 -58,99 -63,96 -68,92 -72,89 -76,84 -80,80 -84,76 -88,71 -92,66 -94,60 -97,56 -100,50 -103,44 -104,39 -106,33 -108,27 -109,22 -110,15 -110,9 -111,3 0,-1 -111,-3 -110,-9 -110,-15 -109,-22 -108,-27 -106,-33 -104,-39 -103,-44 -100,-50 -97,-56 -94,-60 -92,-66 -88,-71 -84,-76 -80,-80 -76,-84 -72,-89 -68,-92 -63,-96 -58,-99 -52,-102 -48,-105 -42,-108 -37,-109 -32,-112 -26,-113 -20,-114 -14,-116 -9,-116 -3,-116 1,1 z"
           id="path4371"
           inkscape:connector-curvature="0"
           style="fill:none;stroke:#728a41;stroke-width:71;stroke-linejoin:round" />
        <text
           class="TextShape"
           id="text4373">
          <tspan
             class="TextParagraph"
             font-size="1693px"
             font-weight="400"
             id="tspan4375"
             style="font-size:1693px;font-weight:400;font-family:'Calibri, sans-serif'">
            <tspan
               class="TextPosition"
               x="11121"
               y="13695"
               id="tspan4377">
              <tspan
                 id="tspan4379"
                 style="fill:#ffffff;stroke:none">D</tspan>
            </tspan>
          </tspan>
        </text>
      </g>
    </g>
    <g
       transform="matrix(0.03543307,0,0,0.03543307,-15.242774,-102.25918)"
       class="com.sun.star.drawing.CustomShape"
       id="g4381">
      <g
         id="id13">
        <path
           d="m 17568,5820 0,0 3,-116 9,-116 14,-116 20,-114 26,-113 32,-112 37,-109 42,-108 48,-105 52,-102 58,-99 63,-96 68,-92 72,-89 76,-84 80,-80 84,-76 88,-71 92,-66 94,-60 97,-56 100,-50 103,-44 104,-39 106,-33 108,-27 109,-22 110,-15 110,-9 111,-3 0,0 111,3 110,9 110,15 109,22 108,27 106,33 104,39 103,44 100,50 97,56 94,60 92,66 88,71 84,76 80,80 76,84 72,89 68,92 63,96 58,99 52,102 48,105 42,108 37,109 32,112 26,113 20,114 14,116 9,116 3,116 -1,0 -3,116 -9,116 -14,116 -20,114 -26,113 -32,112 -37,109 -42,108 -48,105 -52,102 -58,99 -63,96 -68,92 -72,89 -76,84 -80,80 -84,76 -88,71 -92,66 -94,60 -97,56 -100,50 -103,44 -104,39 -106,33 -108,27 -109,22 -110,15 -110,9 -111,3 0,-1 -111,-3 -110,-9 -110,-15 -109,-22 -108,-27 -106,-33 -104,-39 -103,-44 -100,-50 -97,-56 -94,-60 -92,-66 -88,-71 -84,-76 -80,-80 -76,-84 -72,-89 -68,-92 -63,-96 -58,-99 -52,-102 -48,-105 -42,-108 -37,-109 -32,-112 -26,-113 -20,-114 -14,-116 -9,-116 -3,-116 1,1 z m 0,-2222 0,0 z m 4233,4445 0,0 z"
           id="path4384"
           inkscape:connector-curvature="0"
           style="fill:#8064a2;stroke:none" />
        <path
           d="m 17568,5820 0,0 3,-116 9,-116 14,-116 20,-114 26,-113 32,-112 37,-109 42,-108 48,-105 52,-102 58,-99 63,-96 68,-92 72,-89 76,-84 80,-80 84,-76 88,-71 92,-66 94,-60 97,-56 100,-50 103,-44 104,-39 106,-33 108,-27 109,-22 110,-15 110,-9 111,-3 0,0 111,3 110,9 110,15 109,22 108,27 106,33 104,39 103,44 100,50 97,56 94,60 92,66 88,71 84,76 80,80 76,84 72,89 68,92 63,96 58,99 52,102 48,105 42,108 37,109 32,112 26,113 20,114 14,116 9,116 3,116 -1,0 -3,116 -9,116 -14,116 -20,114 -26,113 -32,112 -37,109 -42,108 -48,105 -52,102 -58,99 -63,96 -68,92 -72,89 -76,84 -80,80 -84,76 -88,71 -92,66 -94,60 -97,56 -100,50 -103,44 -104,39 -106,33 -108,27 -109,22 -110,15 -110,9 -111,3 0,-1 -111,-3 -110,-9 -110,-15 -109,-22 -108,-27 -106,-33 -104,-39 -103,-44 -100,-50 -97,-56 -94,-60 -92,-66 -88,-71 -84,-76 -80,-80 -76,-84 -72,-89 -68,-92 -63,-96 -58,-99 -52,-102 -48,-105 -42,-108 -37,-109 -32,-112 -26,-113 -20,-114 -14,-116 -9,-116 -3,-116 1,1 z"
           id="path4386"
           inkscape:connector-curvature="0"
           style="fill:none;stroke:#5e4977;stroke-width:71;stroke-linejoin:round" />
        <text
           class="TextShape"
           id="text4388">
          <tspan
             class="TextParagraph"
             font-size="1693px"
             font-weight="400"
             id="tspan4390"
             style="font-size:1693px;font-weight:400;font-family:'Calibri, sans-serif'">
            <tspan
               class="TextPosition"
               x="19233"
               y="6498"
               id="tspan4392">
              <tspan
                 id="tspan4394"
                 style="fill:#ffffff;stroke:none">C</tspan>
            </tspan>
          </tspan>
        </text>
      </g>
    </g>
    <g
       transform="matrix(0.03543307,0,0,0.03543307,-15.242774,-102.25918)"
       class="com.sun.star.drawing.CustomShape"
       id="g4396">
      <g
         id="id14">
        <path
           d="m 15331,15270 0,0 3,-116 9,-116 14,-116 20,-114 26,-113 32,-112 37,-109 42,-108 48,-105 52,-102 58,-99 63,-96 68,-92 72,-89 76,-84 80,-80 84,-76 88,-71 92,-66 94,-60 97,-56 100,-50 103,-44 104,-39 106,-33 108,-27 109,-22 110,-15 110,-9 111,-3 0,0 111,3 110,9 110,15 109,22 108,27 106,33 104,39 103,44 100,50 97,56 94,60 92,66 88,71 84,76 80,80 76,84 72,89 68,92 63,96 58,99 52,102 48,105 42,108 37,109 32,112 26,113 20,114 14,116 9,116 3,116 -1,0 -3,116 -9,116 -14,116 -20,114 -26,113 -32,112 -37,109 -42,108 -48,105 -52,102 -58,99 -63,96 -68,92 -72,89 -76,84 -80,80 -84,76 -88,71 -92,66 -94,60 -97,56 -100,50 -103,44 -104,39 -106,33 -108,27 -109,22 -110,15 -110,9 -111,3 0,-1 -111,-3 -110,-9 -110,-15 -109,-22 -108,-27 -106,-33 -104,-39 -103,-44 -100,-50 -97,-56 -94,-60 -92,-66 -88,-71 -84,-76 -80,-80 -76,-84 -72,-89 -68,-92 -63,-96 -58,-99 -52,-102 -48,-105 -42,-108 -37,-109 -32,-112 -26,-113 -20,-114 -14,-116 -9,-116 -3,-116 1,1 z m 0,-2222 0,0 z m 4233,4445 0,0 z"
           id="path4399"
           inkscape:connector-curvature="0"
           style="fill:#f79646;stroke:none" />
        <path
           d="m 15331,15270 0,0 3,-116 9,-116 14,-116 20,-114 26,-113 32,-112 37,-109 42,-108 48,-105 52,-102 58,-99 63,-96 68,-92 72,-89 76,-84 80,-80 84,-76 88,-71 92,-66 94,-60 97,-56 100,-50 103,-44 104,-39 106,-33 108,-27 109,-22 110,-15 110,-9 111,-3 0,0 111,3 110,9 110,15 109,22 108,27 106,33 104,39 103,44 100,50 97,56 94,60 92,66 88,71 84,76 80,80 76,84 72,89 68,92 63,96 58,99 52,102 48,105 42,108 37,109 32,112 26,113 20,114 14,116 9,116 3,116 -1,0 -3,116 -9,116 -14,116 -20,114 -26,113 -32,112 -37,109 -42,108 -48,105 -52,102 -58,99 -63,96 -68,92 -72,89 -76,84 -80,80 -84,76 -88,71 -92,66 -94,60 -97,56 -100,50 -103,44 -104,39 -106,33 -108,27 -109,22 -110,15 -110,9 -111,3 0,-1 -111,-3 -110,-9 -110,-15 -109,-22 -108,-27 -106,-33 -104,-39 -103,-44 -100,-50 -97,-56 -94,-60 -92,-66 -88,-71 -84,-76 -80,-80 -76,-84 -72,-89 -68,-92 -63,-96 -58,-99 -52,-102 -48,-105 -42,-108 -37,-109 -32,-112 -26,-113 -20,-114 -14,-116 -9,-116 -3,-116 1,1 z"
           id="path4401"
           inkscape:connector-curvature="0"
           style="fill:none;stroke:#b66e33;stroke-width:71;stroke-linejoin:round" />
        <text
           class="TextShape"
           id="text4403">
          <tspan
             class="TextParagraph"
             font-size="1693px"
             font-weight="400"
             id="tspan4405"
             style="font-size:1693px;font-weight:400;font-family:'Calibri, sans-serif'">
            <tspan
               class="TextPosition"
               x="17034"
               y="15948"
               id="tspan4407">
              <tspan
                 id="tspan4409"
                 style="fill:#ffffff;stroke:none">E</tspan>
            </tspan>
          </tspan>
        </text>
      </g>
    </g>
    <g
       transform="matrix(0.03543307,0,0,0.03543307,-15.242774,-102.25918)"
       class="com.sun.star.drawing.CustomShape"
       id="g4411">
      <g
         id="id15">
        <text
           class="TextShape"
           id="text4414">
          <tspan
             class="TextParagraph"
             font-size="847px"
             font-weight="400"
             id="tspan4416"
             style="font-size:847px;font-weight:400;font-family:'Calibri, sans-serif'">
            <tspan
               class="TextPosition"
               x="9155"
               y="10179"
               id="tspan4418">
              <tspan
                 id="tspan4420"
                 style="fill:#000000;stroke:none">Expected range…</tspan>
            </tspan>
          </tspan>
        </text>
      </g>
    </g>
  </g>
</svg>
